<svg width="18" height="18" viewBox="0 0 18 18" fill="none" xmlns="http://www.w3.org/2000/svg">
<path d="M11.8369 8.82529L11.8297 8.84545C11.832 8.83937 11.8338 8.83313 11.836 8.82705L11.8369 8.82529Z" fill="#FAF9EE"/>
<path d="M9.00031 1C6.52861 1 4.50001 3.1568 4.50001 5.78752C4.50001 6.80704 4.80601 7.75712 5.32201 8.53535L5.30356 8.50463L8.18446 13.8163L8.19901 13.8366C8.31511 13.9982 8.43001 14.1285 8.56906 14.2266C8.70811 14.3246 8.88616 14.3866 9.06106 14.3678C9.41056 14.3304 9.61366 14.0728 9.80131 13.8014L9.81301 13.7846L12.9891 8.0192L12.9917 8.0144C13.0677 7.868 13.1228 7.72032 13.1699 7.57728C13.3877 7.00917 13.4998 6.40129 13.5 5.78752C13.5 3.1568 11.472 1 9.00031 1ZM9.00031 1.8C11.0634 1.8 12.75 3.59488 12.75 5.78752C12.7501 6.29966 12.6564 6.80688 12.474 7.28064L12.4703 7.29056L12.467 7.30096C12.4275 7.42208 12.3846 7.532 12.3351 7.62736L9.19126 13.3339C9.05221 13.5293 8.95501 13.5755 8.98621 13.572C9.00226 13.5704 9.01711 13.5838 8.98276 13.5595C8.94991 13.5363 8.88286 13.4683 8.80336 13.3602L5.94451 8.088L5.93446 8.07312C5.50351 7.42352 5.25001 6.6368 5.25001 5.78752C5.25001 3.59504 6.93721 1.8 9.00031 1.8ZM9.00031 3.056C7.58101 3.056 6.43306 4.27616 6.43306 5.78752C6.43306 7.29888 7.58116 8.51903 9.00031 8.51903C10.4195 8.51903 11.567 7.29872 11.567 5.78752C11.567 4.27616 10.4195 3.056 9.00031 3.056ZM9.00031 3.856C10.0229 3.856 10.817 4.7016 10.817 5.78752C10.817 6.87344 10.023 7.71904 9.00031 7.71904C7.97761 7.71904 7.18306 6.87328 7.18306 5.78752C7.18306 4.7016 7.97776 3.856 9.00031 3.856Z" fill="#FAF9EE"/>
<path d="M6.6009 12.0491C4.482 12.3685 3 13.1325 3 14.2571C3 15.772 5.4762 17 9 17C12.5238 17 15 15.772 15 14.2571C15 13.1325 13.5182 12.3685 11.3994 12.0491L11.1059 12.5822C12.7028 12.8186 13.8 13.3152 13.8 13.8915C13.8 14.6995 11.651 15.3544 9 15.3544C6.34905 15.3544 4.2 14.6995 4.2 13.8915C4.19985 13.3171 5.2899 12.821 6.89175 12.5837C6.795 12.4054 6.6978 12.2275 6.6009 12.0491Z" fill="#FAF9EE"/>
</svg>
