<svg width="40" height="40" viewBox="0 0 40 40" fill="none" xmlns="http://www.w3.org/2000/svg">
<path d="M27.0923 19.5632L27.0743 19.6136C27.0799 19.5984 27.0844 19.5828 27.0901 19.5676L27.0923 19.5632Z" fill="#39382C" fill-opacity="0.2"/>
<path d="M20.0008 0C13.8215 0 8.75003 5.392 8.75003 11.9688C8.75003 14.5176 9.51503 16.8928 10.805 18.8384L10.7589 18.7616L17.9612 32.0408L17.9975 32.0916C18.2878 32.4956 18.575 32.8212 18.9227 33.0664C19.2703 33.3116 19.7154 33.4664 20.1527 33.4196C21.0264 33.326 21.5342 32.682 22.0033 32.0036L22.0325 31.9616L29.9728 17.548L29.9792 17.536C30.1693 17.17 30.3069 16.8008 30.4247 16.4432C30.9692 15.0229 31.2495 13.5032 31.25 11.9688C31.25 5.392 26.18 0 20.0008 0ZM20.0008 2C25.1585 2 29.375 6.4872 29.375 11.9688C29.3754 13.2491 29.141 14.5172 28.685 15.7016L28.6757 15.7264L28.6674 15.7524C28.5688 16.0552 28.4615 16.33 28.3378 16.5684L20.4782 30.8348C20.1305 31.3232 19.8875 31.4388 19.9655 31.43C20.0057 31.426 20.0428 31.4596 19.9569 31.3988C19.8748 31.3408 19.7072 31.1708 19.5084 30.9004L12.3613 17.72L12.3362 17.6828C11.2588 16.0588 10.625 14.092 10.625 11.9688C10.625 6.4876 14.843 2 20.0008 2ZM20.0008 5.14C16.4525 5.14 13.5827 8.19039 13.5827 11.9688C13.5827 15.7472 16.4529 18.7976 20.0008 18.7976C23.5487 18.7976 26.4174 15.7468 26.4174 11.9688C26.4174 8.19039 23.5487 5.14 20.0008 5.14ZM20.0008 7.14C22.5572 7.14 24.5424 9.25399 24.5424 11.9688C24.5424 14.6836 22.5575 16.7976 20.0008 16.7976C17.444 16.7976 15.4577 14.6832 15.4577 11.9688C15.4577 9.25399 17.4444 7.14 20.0008 7.14Z" fill="#39382C" fill-opacity="0.2"/>
<path d="M14.0023 27.6228C8.705 28.4212 5 30.3312 5 33.1428C5 36.93 11.1905 40 20 40C28.8095 40 35 36.93 35 33.1428C35 30.3312 31.2954 28.4212 25.9985 27.6228L25.2646 28.9556C29.2569 29.5464 32 30.788 32 32.2288C32 34.2488 26.6274 35.886 20 35.886C13.3726 35.886 8 34.2488 8 32.2288C7.99963 30.7928 10.7248 29.5524 14.7294 28.9592C14.4875 28.5136 14.2445 28.0688 14.0023 27.6228Z" fill="#39382C" fill-opacity="0.2"/>
</svg>
