<svg width="311" height="336" viewBox="0 0 311 336" fill="none" xmlns="http://www.w3.org/2000/svg">
<g filter="url(#filter0_d_245_53)">
<path d="M55.5 76.5H308.5V124C308.5 134.77 299.77 143.5 289 143.5H75C64.2305 143.5 55.5 134.77 55.5 124V76.5Z" fill="#FDFDFD"/>
<path d="M55.5 76.5H308.5V124C308.5 134.77 299.77 143.5 289 143.5H75C64.2305 143.5 55.5 134.77 55.5 124V76.5Z" stroke="black"/>
<path d="M79.5781 124.211C78.2812 124.211 77.0781 123.953 75.9688 123.438C74.8594 122.922 73.9609 122.141 73.2734 121.094C72.6016 120.047 72.2656 118.742 72.2656 117.18C72.2656 116.242 72.4297 115.344 72.7578 114.484C73.0859 113.625 73.5703 112.867 74.2109 112.211C74.8516 111.539 75.6406 111.008 76.5781 110.617C77.5312 110.227 78.625 110.031 79.8594 110.031C80.4688 110.031 81.1328 110.094 81.8516 110.219C82.5703 110.328 83.2188 110.5 83.7969 110.734L83.9609 113.852L83.0234 113.945L82.3438 111.789C82.0469 111.57 81.6328 111.406 81.1016 111.297C80.5859 111.188 80.1016 111.133 79.6484 111.133C78.3984 111.133 77.3828 111.398 76.6016 111.93C75.8203 112.461 75.25 113.164 74.8906 114.039C74.5469 114.898 74.375 115.828 74.375 116.828C74.375 118.188 74.6094 119.336 75.0781 120.273C75.5625 121.195 76.2109 121.898 77.0234 122.383C77.8359 122.852 78.7422 123.086 79.7422 123.086C80.2734 123.086 80.7344 123.031 81.125 122.922C81.5156 122.812 81.9141 122.656 82.3203 122.453L83.4219 120.227L84.3594 120.32L83.7031 123.227C83.1406 123.492 82.5078 123.727 81.8047 123.93C81.1172 124.117 80.375 124.211 79.5781 124.211ZM90.875 124.188C89.875 124.188 89 123.969 88.25 123.531C87.5156 123.094 86.9453 122.484 86.5391 121.703C86.1328 120.906 85.9297 120 85.9297 118.984C85.9297 117.953 86.1484 117.055 86.5859 116.289C87.0391 115.508 87.6484 114.898 88.4141 114.461C89.1797 114.023 90.0234 113.805 90.9453 113.805C91.8984 113.805 92.7266 114.016 93.4297 114.438C94.1328 114.859 94.6797 115.461 95.0703 116.242C95.4609 117.008 95.6562 117.898 95.6562 118.914C95.6562 119.898 95.4453 120.789 95.0234 121.586C94.6016 122.367 94.0234 123 93.2891 123.484C92.5703 123.953 91.7656 124.188 90.875 124.188ZM91.0859 123.203C91.6641 123.203 92.1641 123.031 92.5859 122.688C93.0078 122.344 93.3359 121.875 93.5703 121.281C93.8203 120.688 93.9453 120.016 93.9453 119.266C93.9453 117.922 93.6484 116.836 93.0547 116.008C92.4609 115.164 91.6875 114.742 90.7344 114.742C89.8281 114.742 89.0938 115.109 88.5312 115.844C87.9688 116.562 87.6875 117.523 87.6875 118.727C87.6875 119.617 87.8359 120.398 88.1328 121.07C88.4297 121.742 88.8359 122.266 89.3516 122.641C89.8672 123.016 90.4453 123.203 91.0859 123.203ZM97.4844 124L97.4375 123.227L98.8906 122.875C98.9062 122.75 98.9141 122.602 98.9141 122.43C98.9297 122.242 98.9375 121.984 98.9375 121.656C98.9531 121.328 98.9609 120.891 98.9609 120.344L98.9844 118.516C98.9844 117.984 98.9609 117.445 98.9141 116.898C98.8828 116.336 98.8516 115.93 98.8203 115.68L97.3203 115.352V114.648L100.18 113.852L100.508 114.203L100.391 115.422L100.461 115.445C101.039 114.852 101.586 114.43 102.102 114.18C102.617 113.93 103.18 113.805 103.789 113.805C104.336 113.805 104.859 113.945 105.359 114.227C105.859 114.492 106.273 114.922 106.602 115.516C106.93 116.094 107.094 116.844 107.094 117.766V120.414C107.094 120.992 107.109 121.508 107.141 121.961C107.172 122.414 107.203 122.719 107.234 122.875L108.688 123.227L108.641 124H104.258L104.211 123.227L105.57 122.875C105.586 122.75 105.602 122.609 105.617 122.453C105.633 122.281 105.641 122.055 105.641 121.773C105.656 121.477 105.664 121.094 105.664 120.625V117.93C105.664 117.195 105.531 116.617 105.266 116.195C105 115.773 104.672 115.477 104.281 115.305C103.906 115.117 103.539 115.023 103.18 115.023C102.633 115.023 102.125 115.164 101.656 115.445C101.188 115.711 100.781 116.086 100.438 116.57V120.133C100.438 120.898 100.445 121.5 100.461 121.938C100.492 122.375 100.516 122.688 100.531 122.875L101.984 123.227L101.938 124H97.4844ZM114.43 124.094L110.328 115.094L109.227 114.766L109.273 113.992H113.445L113.492 114.766L112.039 115.094L115.414 122.617L114.805 122.641L117.898 115.094L116.445 114.766L116.492 113.992H120.266L120.312 114.766L119.211 115.094L115.039 124.094H114.43ZM125.797 124.188C124.922 124.188 124.125 123.992 123.406 123.602C122.703 123.211 122.141 122.641 121.719 121.891C121.297 121.141 121.086 120.242 121.086 119.195C121.086 118.07 121.305 117.109 121.742 116.312C122.18 115.5 122.758 114.875 123.477 114.438C124.195 114 124.969 113.789 125.797 113.805C126.953 113.82 127.867 114.211 128.539 114.977C129.211 115.742 129.547 116.875 129.547 118.375V118.773H122.258V117.789H128.234L128 118.023V117.602C128 116.664 127.781 115.945 127.344 115.445C126.922 114.93 126.344 114.672 125.609 114.672C125.141 114.672 124.688 114.812 124.25 115.094C123.828 115.359 123.484 115.766 123.219 116.312C122.953 116.859 122.82 117.547 122.82 118.375V118.609C122.82 119.938 123.141 120.969 123.781 121.703C124.422 122.438 125.242 122.805 126.242 122.805C126.805 122.805 127.305 122.695 127.742 122.477C128.18 122.258 128.602 121.898 129.008 121.398L129.57 121.891C129.133 122.672 128.594 123.25 127.953 123.625C127.312 124 126.594 124.188 125.797 124.188ZM131.281 124L131.234 123.227L132.688 122.875C132.703 122.75 132.711 122.602 132.711 122.43C132.727 122.242 132.734 121.984 132.734 121.656C132.75 121.328 132.758 120.891 132.758 120.344L132.781 118.516C132.781 117.984 132.758 117.445 132.711 116.898C132.68 116.336 132.648 115.93 132.617 115.68L131.117 115.352V114.648L133.977 113.852L134.305 114.203L134.188 115.422L134.258 115.445C134.836 114.852 135.383 114.43 135.898 114.18C136.414 113.93 136.977 113.805 137.586 113.805C138.133 113.805 138.656 113.945 139.156 114.227C139.656 114.492 140.07 114.922 140.398 115.516C140.727 116.094 140.891 116.844 140.891 117.766V120.414C140.891 120.992 140.906 121.508 140.938 121.961C140.969 122.414 141 122.719 141.031 122.875L142.484 123.227L142.438 124H138.055L138.008 123.227L139.367 122.875C139.383 122.75 139.398 122.609 139.414 122.453C139.43 122.281 139.438 122.055 139.438 121.773C139.453 121.477 139.461 121.094 139.461 120.625V117.93C139.461 117.195 139.328 116.617 139.062 116.195C138.797 115.773 138.469 115.477 138.078 115.305C137.703 115.117 137.336 115.023 136.977 115.023C136.43 115.023 135.922 115.164 135.453 115.445C134.984 115.711 134.578 116.086 134.234 116.57V120.133C134.234 120.898 134.242 121.5 134.258 121.938C134.289 122.375 134.312 122.688 134.328 122.875L135.781 123.227L135.734 124H131.281ZM147.781 124.188C147.203 124.188 146.672 124.07 146.188 123.836C145.719 123.602 145.344 123.297 145.062 122.922C144.781 122.547 144.641 122.141 144.641 121.703C144.641 121.203 144.812 120.789 145.156 120.461C145.5 120.117 146.07 119.812 146.867 119.547L150.406 118.305V117.016C150.406 116.609 150.281 116.242 150.031 115.914C149.797 115.586 149.477 115.328 149.07 115.141C148.664 114.953 148.203 114.859 147.688 114.859C147.266 114.859 146.977 114.945 146.82 115.117C146.68 115.289 146.594 115.641 146.562 116.172L146.516 117.016C146.016 117.141 145.586 117.133 145.227 116.992C144.867 116.836 144.688 116.578 144.688 116.219C144.688 115.969 144.789 115.719 144.992 115.469C145.211 115.219 145.492 114.977 145.836 114.742C146.195 114.508 146.578 114.312 146.984 114.156C147.406 113.984 147.836 113.867 148.273 113.805C149.352 113.805 150.227 114.102 150.898 114.695C151.57 115.289 151.914 116.07 151.93 117.039L151.883 121.164C151.883 121.414 151.891 121.695 151.906 122.008C151.938 122.305 151.977 122.516 152.023 122.641L153.5 122.922V123.555L152.445 123.93C152.242 124.008 152.055 124.07 151.883 124.117C151.727 124.164 151.594 124.188 151.484 124.188C151.031 124.188 150.75 123.93 150.641 123.414L150.43 122.523L150.734 122.5C150.219 123.078 149.719 123.508 149.234 123.789C148.766 124.055 148.281 124.188 147.781 124.188ZM148.273 123.016C148.664 123.016 149.031 122.922 149.375 122.734C149.734 122.547 150.078 122.258 150.406 121.867V119.359L147.477 120.18C147.102 120.273 146.828 120.43 146.656 120.648C146.5 120.852 146.422 121.117 146.422 121.445C146.422 121.836 146.609 122.195 146.984 122.523C147.359 122.852 147.789 123.016 148.273 123.016ZM154.93 124L154.883 123.227L156.336 122.875C156.352 122.75 156.359 122.602 156.359 122.43C156.375 122.242 156.383 121.984 156.383 121.656C156.398 121.328 156.406 120.891 156.406 120.344L156.43 118.516C156.43 117.984 156.406 117.445 156.359 116.898C156.328 116.336 156.297 115.93 156.266 115.68L154.766 115.352V114.648L157.625 113.852L157.953 114.203L157.836 115.422L157.906 115.445C158.484 114.852 159.031 114.43 159.547 114.18C160.062 113.93 160.625 113.805 161.234 113.805C161.781 113.805 162.305 113.945 162.805 114.227C163.305 114.492 163.719 114.922 164.047 115.516C164.375 116.094 164.539 116.844 164.539 117.766V120.414C164.539 120.992 164.555 121.508 164.586 121.961C164.617 122.414 164.648 122.719 164.68 122.875L166.133 123.227L166.086 124H161.703L161.656 123.227L163.016 122.875C163.031 122.75 163.047 122.609 163.062 122.453C163.078 122.281 163.086 122.055 163.086 121.773C163.102 121.477 163.109 121.094 163.109 120.625V117.93C163.109 117.195 162.977 116.617 162.711 116.195C162.445 115.773 162.117 115.477 161.727 115.305C161.352 115.117 160.984 115.023 160.625 115.023C160.078 115.023 159.57 115.164 159.102 115.445C158.633 115.711 158.227 116.086 157.883 116.57V120.133C157.883 120.898 157.891 121.5 157.906 121.938C157.938 122.375 157.961 122.688 157.977 122.875L159.43 123.227L159.383 124H154.93ZM174.664 122.688C174.352 123.156 173.953 123.523 173.469 123.789C172.984 124.039 172.484 124.164 171.969 124.164C171.062 124.164 170.312 123.883 169.719 123.32C169.125 122.758 168.828 121.914 168.828 120.789L168.898 115.094H167.258V114.672L170.023 112.023H170.375L170.328 114.555L170.305 120.391C170.305 121.25 170.484 121.891 170.844 122.312C171.219 122.734 171.734 122.945 172.391 122.945C172.766 122.945 173.109 122.875 173.422 122.734C173.75 122.578 174.039 122.375 174.289 122.125L174.664 122.688ZM169.648 115.094V114.016H173.938V115.094H169.648Z" fill="#616161"/>
<path d="M55 36C55 24.9543 63.9543 16 75 16H289C300.046 16 309 24.9543 309 36V88H55V36Z" fill="#171717"/>
<path d="M81.2 64.48C78.4267 64.48 76.28 63.12 74.76 60.4C73.4533 58.0533 72.8 55.1067 72.8 51.56C72.8 47.2667 73.6267 44.04 75.28 41.88C76.08 41.0267 77.1733 39.8133 78.56 38.24C79.28 37.3867 80.6533 36.96 82.68 36.96C85.2933 36.96 87.3733 38.4 88.92 41.28C90.28 43.84 90.96 46.9067 90.96 50.48C90.96 54.3733 90.1733 57.3467 88.6 59.4C88.28 59.7467 87.8667 60.2 87.36 60.76C86.8533 61.32 86.2533 62 85.56 62.8C84.7333 63.92 83.28 64.48 81.2 64.48ZM83.04 62.44C85.8933 62.44 87.6267 59.9867 88.24 55.08C88.2933 54.5467 88.3333 54.0133 88.36 53.48C88.3867 52.9467 88.4 52.4133 88.4 51.88C88.4 48.8933 87.9467 46.36 87.04 44.28C86 41.9333 84.52 40.4 82.6 39.68C81.9067 39.4133 81.2533 39.28 80.64 39.28C77.7867 39.28 76.08 41.76 75.52 46.72C75.4667 47.2267 75.4267 47.7333 75.4 48.24C75.3733 48.7467 75.36 49.2533 75.36 49.76C75.36 51.2 75.4667 52.5467 75.68 53.8C75.8933 55.0533 76.2133 56.2 76.64 57.24C77.6 59.6133 79.0133 61.1733 80.88 61.92C81.6 62.2667 82.32 62.44 83.04 62.44ZM101.198 64.4C99.4111 64.4 97.8645 63.9733 96.5578 63.12C95.0911 62.1333 94.3578 60.7867 94.3578 59.08C94.3578 56.2 96.2378 53.4667 99.9978 50.88C99.2511 50.4267 98.5978 49.9867 98.0378 49.56C97.4778 49.1333 97.0378 48.6933 96.7178 48.24C95.8378 47.1467 95.3978 45.8 95.3978 44.2C95.3978 42.2 96.1445 40.48 97.6378 39.04C99.1578 37.6533 100.878 36.96 102.798 36.96C104.558 36.96 105.998 37.4 107.118 38.28C108.344 39.2667 108.958 40.64 108.958 42.4C108.958 44.6133 107.318 47 104.038 49.56C105.664 50.6 106.984 51.6533 107.998 52.72C109.011 53.7867 109.518 55.16 109.518 56.84C109.518 59.1067 108.678 60.9467 106.998 62.36C105.398 63.72 103.464 64.4 101.198 64.4ZM102.958 48.92C103.491 48.4933 103.984 48.04 104.438 47.56C104.918 47.0533 105.344 46.5067 105.718 45.92C106.198 45.2533 106.544 44.6133 106.758 44C106.971 43.3867 107.078 42.7867 107.078 42.2C107.078 40.8933 106.651 39.8533 105.798 39.08C104.971 38.2533 103.944 37.84 102.718 37.84C101.331 37.84 100.211 38.2933 99.3578 39.2C98.5578 40.08 98.1578 41.2533 98.1578 42.72C98.1578 44.1067 98.6645 45.3467 99.6778 46.44C100.318 47.16 101.411 47.9867 102.958 48.92ZM100.998 63.28C102.518 63.28 103.798 62.8267 104.838 61.92C105.318 61.4667 105.704 60.9333 105.998 60.32C106.291 59.7067 106.438 59.0267 106.438 58.28C106.438 56.68 105.918 55.3067 104.878 54.16C104.531 53.7867 104.038 53.3867 103.398 52.96C102.758 52.5067 101.998 52.0267 101.118 51.52C98.2111 53.7067 96.7578 56.0533 96.7578 58.56C96.7578 60 97.1178 61.12 97.8378 61.92C98.6111 62.8267 99.6645 63.28 100.998 63.28ZM115.279 64.4C114.906 64.4 114.452 64.16 113.919 63.68C113.412 63.2267 113.159 62.88 113.159 62.64C113.159 62.4533 113.586 62.0133 114.439 61.32C115.052 60.84 115.439 60.6 115.599 60.6C115.706 60.6 115.852 60.68 116.039 60.84C116.172 60.9467 116.306 61.0533 116.439 61.16C116.599 61.24 116.746 61.3067 116.879 61.36C117.252 61.5467 117.719 61.64 118.279 61.64C118.439 61.64 118.519 61.7333 118.519 61.92C118.519 62.0267 118.479 62.12 118.399 62.2C118.319 62.28 118.172 62.4 117.959 62.56C117.772 62.72 117.506 62.9467 117.159 63.24C116.226 64.0133 115.599 64.4 115.279 64.4ZM132.411 64.48C129.638 64.48 127.491 63.12 125.971 60.4C124.664 58.0533 124.011 55.1067 124.011 51.56C124.011 47.2667 124.838 44.04 126.491 41.88C127.291 41.0267 128.384 39.8133 129.771 38.24C130.491 37.3867 131.864 36.96 133.891 36.96C136.504 36.96 138.584 38.4 140.131 41.28C141.491 43.84 142.171 46.9067 142.171 50.48C142.171 54.3733 141.384 57.3467 139.811 59.4C139.491 59.7467 139.078 60.2 138.571 60.76C138.064 61.32 137.464 62 136.771 62.8C135.944 63.92 134.491 64.48 132.411 64.48ZM134.251 62.44C137.104 62.44 138.838 59.9867 139.451 55.08C139.504 54.5467 139.544 54.0133 139.571 53.48C139.598 52.9467 139.611 52.4133 139.611 51.88C139.611 48.8933 139.158 46.36 138.251 44.28C137.211 41.9333 135.731 40.4 133.811 39.68C133.118 39.4133 132.464 39.28 131.851 39.28C128.998 39.28 127.291 41.76 126.731 46.72C126.678 47.2267 126.638 47.7333 126.611 48.24C126.584 48.7467 126.571 49.2533 126.571 49.76C126.571 51.2 126.678 52.5467 126.891 53.8C127.104 55.0533 127.424 56.2 127.851 57.24C128.811 59.6133 130.224 61.1733 132.091 61.92C132.811 62.2667 133.531 62.44 134.251 62.44ZM154.169 64.48C151.395 64.48 149.249 63.12 147.729 60.4C146.422 58.0533 145.769 55.1067 145.769 51.56C145.769 47.2667 146.595 44.04 148.249 41.88C149.049 41.0267 150.142 39.8133 151.529 38.24C152.249 37.3867 153.622 36.96 155.649 36.96C158.262 36.96 160.342 38.4 161.889 41.28C163.249 43.84 163.929 46.9067 163.929 50.48C163.929 54.3733 163.142 57.3467 161.569 59.4C161.249 59.7467 160.835 60.2 160.329 60.76C159.822 61.32 159.222 62 158.529 62.8C157.702 63.92 156.249 64.48 154.169 64.48ZM156.009 62.44C158.862 62.44 160.595 59.9867 161.209 55.08C161.262 54.5467 161.302 54.0133 161.329 53.48C161.355 52.9467 161.369 52.4133 161.369 51.88C161.369 48.8933 160.915 46.36 160.009 44.28C158.969 41.9333 157.489 40.4 155.569 39.68C154.875 39.4133 154.222 39.28 153.609 39.28C150.755 39.28 149.049 41.76 148.489 46.72C148.435 47.2267 148.395 47.7333 148.369 48.24C148.342 48.7467 148.329 49.2533 148.329 49.76C148.329 51.2 148.435 52.5467 148.649 53.8C148.862 55.0533 149.182 56.2 149.609 57.24C150.569 59.6133 151.982 61.1733 153.849 61.92C154.569 62.2667 155.289 62.44 156.009 62.44ZM191.33 55.92C190.236 55.6267 188.596 55.48 186.41 55.48C184.916 55.48 183.09 55.6 180.93 55.84C180.903 55.84 180.89 55.8133 180.89 55.76C180.89 55.4933 181.023 55.08 181.29 54.52C181.583 53.9067 181.823 53.6267 182.01 53.68C182.516 53.8133 183.156 53.92 183.93 54C184.73 54.08 185.663 54.12 186.73 54.12C187.156 54.12 187.623 54.1067 188.13 54.08C188.663 54.0267 189.236 53.9867 189.85 53.96C190.623 53.9067 191.223 53.8667 191.65 53.84C192.076 53.7867 192.33 53.76 192.41 53.76C192.436 53.76 192.45 53.7867 192.45 53.84C192.45 54.0533 192.316 54.4667 192.05 55.08C191.73 55.6667 191.49 55.9467 191.33 55.92ZM208.651 64.12L208.931 63.36C209.038 63.3867 209.144 63.4 209.251 63.4C209.358 63.4 209.478 63.4 209.611 63.4C210.438 63.4 211.251 63.2533 212.051 62.96C212.984 62.56 213.558 62 213.771 61.28C213.878 60.8 213.958 59.7867 214.011 58.24C214.091 56.6667 214.144 54.5467 214.171 51.88V45.44C214.171 44.5067 214.144 43.7333 214.091 43.12C214.064 42.5067 213.984 42.04 213.851 41.72C213.744 41.32 213.478 41.0267 213.051 40.84L212.891 40.8C212.518 40.8 211.798 41.3067 210.731 42.32C210.544 42.5333 210.318 42.7733 210.051 43.04C209.784 43.3067 209.504 43.5867 209.211 43.88V42.2C209.584 41.9333 210.078 41.5733 210.691 41.12C211.331 40.64 212.104 40.0533 213.011 39.36C213.731 38.7733 214.398 38.24 215.011 37.76C215.624 37.28 216.171 36.8667 216.651 36.52C216.811 36.3867 216.984 36.32 217.171 36.32C217.384 36.32 217.491 36.4667 217.491 36.76C217.491 36.92 217.478 37.0533 217.451 37.16C217.264 38.3067 217.104 39.8667 216.971 41.84C216.864 43.7867 216.811 46.1467 216.811 48.92L216.851 51.92C216.851 56.7467 216.971 59.8667 217.211 61.28C217.344 62.0533 217.971 62.6267 219.091 63C219.811 63.2667 220.651 63.4 221.611 63.4C221.798 63.4 221.918 63.3867 221.971 63.36L221.531 64.12C220.731 63.88 218.758 63.72 215.611 63.64C215.104 63.64 212.784 63.8 208.651 64.12ZM232.645 64.48C229.872 64.48 227.725 63.12 226.205 60.4C224.899 58.0533 224.245 55.1067 224.245 51.56C224.245 47.2667 225.072 44.04 226.725 41.88C227.525 41.0267 228.619 39.8133 230.005 38.24C230.725 37.3867 232.099 36.96 234.125 36.96C236.739 36.96 238.819 38.4 240.365 41.28C241.725 43.84 242.405 46.9067 242.405 50.48C242.405 54.3733 241.619 57.3467 240.045 59.4C239.725 59.7467 239.312 60.2 238.805 60.76C238.299 61.32 237.699 62 237.005 62.8C236.179 63.92 234.725 64.48 232.645 64.48ZM234.485 62.44C237.339 62.44 239.072 59.9867 239.685 55.08C239.739 54.5467 239.779 54.0133 239.805 53.48C239.832 52.9467 239.845 52.4133 239.845 51.88C239.845 48.8933 239.392 46.36 238.485 44.28C237.445 41.9333 235.965 40.4 234.045 39.68C233.352 39.4133 232.699 39.28 232.085 39.28C229.232 39.28 227.525 41.76 226.965 46.72C226.912 47.2267 226.872 47.7333 226.845 48.24C226.819 48.7467 226.805 49.2533 226.805 49.76C226.805 51.2 226.912 52.5467 227.125 53.8C227.339 55.0533 227.659 56.2 228.085 57.24C229.045 59.6133 230.459 61.1733 232.325 61.92C233.045 62.2667 233.765 62.44 234.485 62.44ZM246.217 64.4C245.843 64.4 245.39 64.16 244.857 63.68C244.35 63.2267 244.097 62.88 244.097 62.64C244.097 62.4533 244.523 62.0133 245.377 61.32C245.99 60.84 246.377 60.6 246.537 60.6C246.643 60.6 246.79 60.68 246.977 60.84C247.11 60.9467 247.243 61.0533 247.377 61.16C247.537 61.24 247.683 61.3067 247.817 61.36C248.19 61.5467 248.657 61.64 249.217 61.64C249.377 61.64 249.457 61.7333 249.457 61.92C249.457 62.0267 249.417 62.12 249.337 62.2C249.257 62.28 249.11 62.4 248.897 62.56C248.71 62.72 248.443 62.9467 248.097 63.24C247.163 64.0133 246.537 64.4 246.217 64.4ZM259.562 64.56C258.869 64.56 258.122 64.52 257.322 64.44C256.522 64.36 255.815 64.2533 255.202 64.12C254.615 63.9867 254.135 63.8267 253.762 63.64C253.149 63.3733 252.842 63.0133 252.842 62.56V62.4C252.895 62.16 252.935 61.88 252.962 61.56C252.989 61.24 253.002 60.8933 253.002 60.52C253.002 60.0667 252.989 59.5867 252.962 59.08C252.935 58.5733 252.895 58.0267 252.842 57.44L254.042 56.92C253.989 57.08 253.962 57.36 253.962 57.76C253.962 57.9467 253.962 58.1733 253.962 58.44C253.962 58.7067 253.975 58.9867 254.002 59.28C254.055 59.8133 254.255 60.4 254.602 61.04C254.949 61.68 255.309 62.1333 255.682 62.4C256.589 63.0667 257.775 63.4 259.242 63.4H259.682C261.949 63.32 263.669 62.4933 264.842 60.92C265.802 59.5867 266.282 57.9067 266.282 55.88C266.282 53.4 265.215 51.6933 263.082 50.76C262.389 50.4667 261.509 50.2533 260.442 50.12C259.375 49.96 258.122 49.88 256.682 49.88C256.735 49.72 256.802 49.56 256.882 49.4C256.962 49.24 257.029 49.0667 257.082 48.88C257.215 48.8533 257.362 48.8267 257.522 48.8C257.682 48.7467 257.895 48.7067 258.162 48.68C262.749 47.72 265.042 45.84 265.042 43.04C265.042 41.6267 264.535 40.4933 263.522 39.64C262.535 38.76 261.215 38.32 259.562 38.32C257.989 38.32 256.802 38.64 256.002 39.28C255.602 39.6267 255.295 40.0933 255.082 40.68C254.815 41.2933 254.682 41.88 254.682 42.44C254.735 43.16 254.789 43.72 254.842 44.12C254.895 44.52 254.935 44.7733 254.962 44.88L253.922 45.6C253.922 44.8267 253.842 43.6667 253.682 42.12C253.522 40.4933 253.389 39.5067 253.282 39.16C253.255 39.1067 253.242 39.0267 253.242 38.92C253.242 38.52 253.495 38.2 254.002 37.96C254.429 37.7467 255.002 37.5733 255.722 37.44C256.442 37.3067 257.335 37.2267 258.402 37.2L259.762 37.12H260.562C262.109 37.12 263.402 37.3333 264.442 37.76C266.709 38.64 267.842 40.2533 267.842 42.6C267.842 45.32 266.109 47.3333 262.642 48.64C262.189 48.8 261.962 48.9333 261.962 49.04C261.962 49.1733 262.349 49.28 263.122 49.36C265.415 49.6 267.082 50.4267 268.122 51.84C268.789 52.7733 269.122 54.12 269.122 55.88C269.122 56.7867 269.055 57.6133 268.922 58.36C268.815 59.1067 268.615 59.7467 268.322 60.28C267.095 62.7867 264.629 64.2 260.922 64.52C260.709 64.5467 260.482 64.56 260.242 64.56C260.029 64.56 259.802 64.56 259.562 64.56ZM281.239 64.48C278.466 64.48 276.319 63.12 274.799 60.4C273.492 58.0533 272.839 55.1067 272.839 51.56C272.839 47.2667 273.666 44.04 275.319 41.88C276.119 41.0267 277.212 39.8133 278.599 38.24C279.319 37.3867 280.692 36.96 282.719 36.96C285.332 36.96 287.412 38.4 288.959 41.28C290.319 43.84 290.999 46.9067 290.999 50.48C290.999 54.3733 290.212 57.3467 288.639 59.4C288.319 59.7467 287.906 60.2 287.399 60.76C286.892 61.32 286.292 62 285.599 62.8C284.772 63.92 283.319 64.48 281.239 64.48ZM283.079 62.44C285.932 62.44 287.666 59.9867 288.279 55.08C288.332 54.5467 288.372 54.0133 288.399 53.48C288.426 52.9467 288.439 52.4133 288.439 51.88C288.439 48.8933 287.986 46.36 287.079 44.28C286.039 41.9333 284.559 40.4 282.639 39.68C281.946 39.4133 281.292 39.28 280.679 39.28C277.826 39.28 276.119 41.76 275.559 46.72C275.506 47.2267 275.466 47.7333 275.439 48.24C275.412 48.7467 275.399 49.2533 275.399 49.76C275.399 51.2 275.506 52.5467 275.719 53.8C275.932 55.0533 276.252 56.2 276.679 57.24C277.639 59.6133 279.052 61.1733 280.919 61.92C281.639 62.2667 282.359 62.44 283.079 62.44Z" fill="#FDFDFD"/>
</g>
<g filter="url(#filter1_d_245_53)">
<path d="M55.5 264.5H308.5V312C308.5 322.77 299.77 331.5 289 331.5H75C64.2305 331.5 55.5 322.77 55.5 312V264.5Z" fill="#FDFDFD"/>
<path d="M55.5 264.5H308.5V312C308.5 322.77 299.77 331.5 289 331.5H75C64.2305 331.5 55.5 322.77 55.5 312V264.5Z" stroke="black"/>
<path d="M82.3672 301.383L78.125 312.07H77.1875L72.4062 299.367L71.2344 299.062L71.2812 298.242H75.4766L75.5234 299.062L74.3516 299.344L78.2188 309.891H77.9375L81.7812 299.555L82.3672 301.383ZM85.5781 312.07L80.8906 299.367L79.7188 299.062L79.7656 298.242H84.125L84.1953 299.062L82.7891 299.344L86.5859 309.891H86.2578L90.0312 299.367L88.3672 299.062L88.4375 298.242H92.6328L92.6797 299.062L91.5078 299.367L86.5156 312.07H85.5781ZM97.6016 312.188C96.7266 312.188 95.9297 311.992 95.2109 311.602C94.5078 311.211 93.9453 310.641 93.5234 309.891C93.1016 309.141 92.8906 308.242 92.8906 307.195C92.8906 306.07 93.1094 305.109 93.5469 304.312C93.9844 303.5 94.5625 302.875 95.2812 302.438C96 302 96.7734 301.789 97.6016 301.805C98.7578 301.82 99.6719 302.211 100.344 302.977C101.016 303.742 101.352 304.875 101.352 306.375V306.773H94.0625V305.789H100.039L99.8047 306.023V305.602C99.8047 304.664 99.5859 303.945 99.1484 303.445C98.7266 302.93 98.1484 302.672 97.4141 302.672C96.9453 302.672 96.4922 302.812 96.0547 303.094C95.6328 303.359 95.2891 303.766 95.0234 304.312C94.7578 304.859 94.625 305.547 94.625 306.375V306.609C94.625 307.938 94.9453 308.969 95.5859 309.703C96.2266 310.438 97.0469 310.805 98.0469 310.805C98.6094 310.805 99.1094 310.695 99.5469 310.477C99.9844 310.258 100.406 309.898 100.812 309.398L101.375 309.891C100.938 310.672 100.398 311.25 99.7578 311.625C99.1172 312 98.3984 312.188 97.6016 312.188ZM111.266 312.234L111.008 311.953L111.031 310.406H110.961C110.461 311.047 109.961 311.5 109.461 311.766C108.977 312.031 108.453 312.164 107.891 312.164C106.984 312.164 106.18 311.961 105.477 311.555C104.789 311.133 104.242 310.562 103.836 309.844C103.445 309.109 103.25 308.273 103.25 307.336C103.25 306.523 103.383 305.781 103.648 305.109C103.914 304.422 104.281 303.836 104.75 303.352C105.234 302.852 105.773 302.469 106.367 302.203C106.977 301.922 107.617 301.781 108.289 301.781C108.773 301.781 109.258 301.844 109.742 301.969C110.242 302.094 110.664 302.297 111.008 302.578C111.008 302.297 111 301.914 110.984 301.43C110.984 300.945 110.977 300.445 110.961 299.93C110.961 299.398 110.953 298.93 110.938 298.523C110.938 298.117 110.938 297.852 110.938 297.727L109.086 297.375L109.039 296.672L112.18 295.758L112.555 296.062C112.523 297.031 112.5 297.984 112.484 298.922C112.484 299.844 112.484 300.805 112.484 301.805L112.461 307.195C112.461 307.992 112.477 308.688 112.508 309.281C112.555 309.859 112.586 310.266 112.602 310.5L114.078 310.875V311.578L111.266 312.234ZM108.312 310.805C108.828 310.805 109.289 310.703 109.695 310.5C110.117 310.281 110.555 309.898 111.008 309.352V304.383C110.68 303.789 110.266 303.367 109.766 303.117C109.281 302.867 108.789 302.742 108.289 302.742C107.242 302.742 106.422 303.125 105.828 303.891C105.25 304.641 104.961 305.609 104.961 306.797C104.961 308.062 105.289 309.047 105.945 309.75C106.602 310.453 107.391 310.805 108.312 310.805ZM123.781 312.234L123.523 311.953L123.547 310.406H123.477C122.977 311.047 122.477 311.5 121.977 311.766C121.492 312.031 120.969 312.164 120.406 312.164C119.5 312.164 118.695 311.961 117.992 311.555C117.305 311.133 116.758 310.562 116.352 309.844C115.961 309.109 115.766 308.273 115.766 307.336C115.766 306.523 115.898 305.781 116.164 305.109C116.43 304.422 116.797 303.836 117.266 303.352C117.75 302.852 118.289 302.469 118.883 302.203C119.492 301.922 120.133 301.781 120.805 301.781C121.289 301.781 121.773 301.844 122.258 301.969C122.758 302.094 123.18 302.297 123.523 302.578C123.523 302.297 123.516 301.914 123.5 301.43C123.5 300.945 123.492 300.445 123.477 299.93C123.477 299.398 123.469 298.93 123.453 298.523C123.453 298.117 123.453 297.852 123.453 297.727L121.602 297.375L121.555 296.672L124.695 295.758L125.07 296.062C125.039 297.031 125.016 297.984 125 298.922C125 299.844 125 300.805 125 301.805L124.977 307.195C124.977 307.992 124.992 308.688 125.023 309.281C125.07 309.859 125.102 310.266 125.117 310.5L126.594 310.875V311.578L123.781 312.234ZM120.828 310.805C121.344 310.805 121.805 310.703 122.211 310.5C122.633 310.281 123.07 309.898 123.523 309.352V304.383C123.195 303.789 122.781 303.367 122.281 303.117C121.797 302.867 121.305 302.742 120.805 302.742C119.758 302.742 118.938 303.125 118.344 303.891C117.766 304.641 117.477 305.609 117.477 306.797C117.477 308.062 117.805 309.047 118.461 309.75C119.117 310.453 119.906 310.805 120.828 310.805ZM128.023 312L127.977 311.203L129.547 310.875C129.562 310.812 129.57 310.719 129.57 310.594C129.586 310.453 129.594 310.211 129.594 309.867C129.609 309.508 129.617 309 129.617 308.344V306.867C129.617 306.164 129.602 305.523 129.57 304.945C129.539 304.352 129.508 303.93 129.477 303.68L127.906 303.352V302.648L130.953 301.852L131.211 302.133C131.18 302.617 131.148 303.094 131.117 303.562C131.102 304.016 131.094 304.555 131.094 305.18V308.133C131.094 308.898 131.102 309.516 131.117 309.984C131.148 310.453 131.172 310.75 131.188 310.875L132.758 311.203L132.711 312H128.023ZM130.367 298.992C130.023 298.992 129.719 298.875 129.453 298.641C129.188 298.406 129.055 298.109 129.055 297.75C129.055 297.391 129.188 297.094 129.453 296.859C129.719 296.625 130.023 296.508 130.367 296.508C130.711 296.508 131.008 296.625 131.258 296.859C131.508 297.094 131.633 297.391 131.633 297.75C131.633 298.109 131.508 298.406 131.258 298.641C131.008 298.875 130.711 298.992 130.367 298.992ZM134.211 312L134.164 311.227L135.617 310.875C135.633 310.75 135.641 310.602 135.641 310.43C135.656 310.242 135.664 309.984 135.664 309.656C135.68 309.328 135.688 308.891 135.688 308.344L135.711 306.516C135.711 305.984 135.688 305.445 135.641 304.898C135.609 304.336 135.578 303.93 135.547 303.68L134.047 303.352V302.648L136.906 301.852L137.234 302.203L137.117 303.422L137.188 303.445C137.766 302.852 138.312 302.43 138.828 302.18C139.344 301.93 139.906 301.805 140.516 301.805C141.062 301.805 141.586 301.945 142.086 302.227C142.586 302.492 143 302.922 143.328 303.516C143.656 304.094 143.82 304.844 143.82 305.766V308.414C143.82 308.992 143.836 309.508 143.867 309.961C143.898 310.414 143.93 310.719 143.961 310.875L145.414 311.227L145.367 312H140.984L140.938 311.227L142.297 310.875C142.312 310.75 142.328 310.609 142.344 310.453C142.359 310.281 142.367 310.055 142.367 309.773C142.383 309.477 142.391 309.094 142.391 308.625V305.93C142.391 305.195 142.258 304.617 141.992 304.195C141.727 303.773 141.398 303.477 141.008 303.305C140.633 303.117 140.266 303.023 139.906 303.023C139.359 303.023 138.852 303.164 138.383 303.445C137.914 303.711 137.508 304.086 137.164 304.57V308.133C137.164 308.898 137.172 309.5 137.188 309.938C137.219 310.375 137.242 310.688 137.258 310.875L138.711 311.227L138.664 312H134.211ZM151.461 317.344C150.086 317.344 148.992 317.102 148.18 316.617C147.367 316.148 146.961 315.531 146.961 314.766C146.961 314.219 147.148 313.719 147.523 313.266C147.914 312.812 148.578 312.32 149.516 311.789L150.359 312.023C149.812 312.336 149.391 312.695 149.094 313.102C148.797 313.508 148.648 313.953 148.648 314.438C148.648 315.078 148.906 315.578 149.422 315.938C149.938 316.297 150.641 316.477 151.531 316.477C152.578 316.477 153.422 316.25 154.062 315.797C154.719 315.344 155.047 314.75 155.047 314.016C155.047 313.453 154.844 313.031 154.438 312.75C154.031 312.469 153.367 312.297 152.445 312.234L150.055 312.047L149.656 311.953C149.141 311.953 148.688 311.805 148.297 311.508C147.922 311.195 147.734 310.828 147.734 310.406C147.734 310 147.922 309.602 148.297 309.211C148.672 308.805 149.203 308.438 149.891 308.109L150.172 308.602C149.844 308.836 149.602 309.039 149.445 309.211C149.305 309.383 149.234 309.547 149.234 309.703C149.234 309.938 149.344 310.141 149.562 310.312C149.781 310.469 150.086 310.57 150.477 310.617L153.359 310.898C154.391 311.008 155.188 311.273 155.75 311.695C156.312 312.117 156.594 312.742 156.594 313.57C156.594 314.273 156.367 314.906 155.914 315.469C155.461 316.047 154.844 316.5 154.062 316.828C153.297 317.172 152.43 317.344 151.461 317.344ZM151.672 309.047C150.891 309.047 150.18 308.906 149.539 308.625C148.914 308.328 148.422 307.922 148.062 307.406C147.719 306.891 147.547 306.312 147.547 305.672C147.547 304.938 147.727 304.281 148.086 303.703C148.445 303.125 148.93 302.672 149.539 302.344C150.164 302 150.859 301.828 151.625 301.828C152.406 301.828 153.102 301.984 153.711 302.297C154.32 302.594 154.797 303.016 155.141 303.562C155.484 304.094 155.656 304.703 155.656 305.391C155.656 306.078 155.477 306.703 155.117 307.266C154.773 307.812 154.297 308.25 153.688 308.578C153.094 308.891 152.422 309.047 151.672 309.047ZM151.789 308.227C152.477 308.227 153.016 307.992 153.406 307.523C153.812 307.039 154.016 306.398 154.016 305.602C154.016 304.695 153.789 303.977 153.336 303.445C152.898 302.898 152.32 302.625 151.602 302.625C150.914 302.625 150.352 302.883 149.914 303.398C149.477 303.898 149.258 304.555 149.258 305.367C149.258 306.211 149.484 306.898 149.938 307.43C150.406 307.961 151.023 308.227 151.789 308.227ZM157.109 303.398L154.414 303.234L153.5 302.344L157.109 301.992V303.398ZM163.32 312L163.273 311.18L164.609 310.875C164.625 310.812 164.641 310.695 164.656 310.523C164.672 310.336 164.68 310.016 164.68 309.562C164.695 309.094 164.703 308.438 164.703 307.594L164.727 302.555C164.727 301.727 164.719 301.094 164.703 300.656C164.688 300.219 164.672 299.914 164.656 299.742C164.656 299.57 164.648 299.461 164.633 299.414L163.203 299.062L163.25 298.242H167.984C169.422 298.242 170.562 298.586 171.406 299.273C172.25 299.945 172.672 300.914 172.672 302.18C172.672 303.055 172.445 303.812 171.992 304.453C171.555 305.078 170.969 305.562 170.234 305.906C169.516 306.234 168.734 306.398 167.891 306.398C167.531 306.398 167.188 306.383 166.859 306.352C166.547 306.305 166.258 306.258 165.992 306.211V305.062C166.398 305.172 166.734 305.25 167 305.297C167.281 305.328 167.555 305.344 167.82 305.344C168.789 305.344 169.547 305.117 170.094 304.664C170.641 304.211 170.914 303.484 170.914 302.484C170.914 301.359 170.609 300.531 170 300C169.406 299.469 168.672 299.203 167.797 299.203H166.391C166.391 299.297 166.383 299.516 166.367 299.859C166.367 300.203 166.359 300.617 166.344 301.102C166.344 301.57 166.344 302.055 166.344 302.555L166.367 307.594C166.367 308.438 166.375 309.086 166.391 309.539C166.406 309.977 166.422 310.289 166.438 310.477C166.453 310.648 166.461 310.766 166.461 310.828L168.406 311.133L168.359 312H163.32ZM178.039 312.188C177.461 312.188 176.93 312.07 176.445 311.836C175.977 311.602 175.602 311.297 175.32 310.922C175.039 310.547 174.898 310.141 174.898 309.703C174.898 309.203 175.07 308.789 175.414 308.461C175.758 308.117 176.328 307.812 177.125 307.547L180.664 306.305V305.016C180.664 304.609 180.539 304.242 180.289 303.914C180.055 303.586 179.734 303.328 179.328 303.141C178.922 302.953 178.461 302.859 177.945 302.859C177.523 302.859 177.234 302.945 177.078 303.117C176.938 303.289 176.852 303.641 176.82 304.172L176.773 305.016C176.273 305.141 175.844 305.133 175.484 304.992C175.125 304.836 174.945 304.578 174.945 304.219C174.945 303.969 175.047 303.719 175.25 303.469C175.469 303.219 175.75 302.977 176.094 302.742C176.453 302.508 176.836 302.312 177.242 302.156C177.664 301.984 178.094 301.867 178.531 301.805C179.609 301.805 180.484 302.102 181.156 302.695C181.828 303.289 182.172 304.07 182.188 305.039L182.141 309.164C182.141 309.414 182.148 309.695 182.164 310.008C182.195 310.305 182.234 310.516 182.281 310.641L183.758 310.922V311.555L182.703 311.93C182.5 312.008 182.312 312.07 182.141 312.117C181.984 312.164 181.852 312.188 181.742 312.188C181.289 312.188 181.008 311.93 180.898 311.414L180.688 310.523L180.992 310.5C180.477 311.078 179.977 311.508 179.492 311.789C179.023 312.055 178.539 312.188 178.039 312.188ZM178.531 311.016C178.922 311.016 179.289 310.922 179.633 310.734C179.992 310.547 180.336 310.258 180.664 309.867V307.359L177.734 308.18C177.359 308.273 177.086 308.43 176.914 308.648C176.758 308.852 176.68 309.117 176.68 309.445C176.68 309.836 176.867 310.195 177.242 310.523C177.617 310.852 178.047 311.016 178.531 311.016ZM185.234 312L185.188 311.227L186.641 310.875C186.656 310.797 186.664 310.656 186.664 310.453C186.68 310.25 186.688 309.977 186.688 309.633C186.703 309.289 186.711 308.859 186.711 308.344V306.492C186.711 305.945 186.688 305.406 186.641 304.875C186.609 304.328 186.578 303.93 186.547 303.68L185.047 303.352V302.648L187.906 301.852L188.188 302.156L188.07 304.148L188.141 304.172C188.625 303.25 189.109 302.633 189.594 302.32C190.078 301.992 190.523 301.828 190.93 301.828C191.273 301.828 191.555 301.914 191.773 302.086C192.008 302.258 192.125 302.5 192.125 302.812C192.125 303.141 192.008 303.391 191.773 303.562C191.539 303.734 191.234 303.82 190.859 303.82C190.594 303.82 190.336 303.758 190.086 303.633C189.852 303.508 189.633 303.352 189.43 303.164L189.781 303.328C189.484 303.531 189.195 303.812 188.914 304.172C188.633 304.531 188.375 304.977 188.141 305.508L188.164 307.781C188.18 308.125 188.195 308.5 188.211 308.906C188.227 309.312 188.242 309.695 188.258 310.055C188.273 310.398 188.289 310.672 188.305 310.875L190.344 311.18L190.297 312H185.234ZM200.492 310.688C200.18 311.156 199.781 311.523 199.297 311.789C198.812 312.039 198.312 312.164 197.797 312.164C196.891 312.164 196.141 311.883 195.547 311.32C194.953 310.758 194.656 309.914 194.656 308.789L194.727 303.094H193.086V302.672L195.852 300.023H196.203L196.156 302.555L196.133 308.391C196.133 309.25 196.312 309.891 196.672 310.312C197.047 310.734 197.562 310.945 198.219 310.945C198.594 310.945 198.938 310.875 199.25 310.734C199.578 310.578 199.867 310.375 200.117 310.125L200.492 310.688ZM195.477 303.094V302.016H199.766V303.094H195.477ZM205.32 312.094L201.242 303.094L200.141 302.766L200.211 301.992H204.359L204.406 302.766L202.953 303.094L206.305 310.617L205.32 312.094ZM211.156 301.992L211.227 302.766L210.125 303.094L206.188 311.555L204.289 315.445C203.961 316.133 203.617 316.617 203.258 316.898C202.898 317.195 202.469 317.344 201.969 317.344C201.609 317.344 201.312 317.258 201.078 317.086C200.859 316.93 200.75 316.711 200.75 316.43C200.75 316.227 200.828 316.031 200.984 315.844C201.156 315.656 201.414 315.508 201.758 315.398L203.773 314.789L202.836 315.984L205.367 311.039L205.625 310.641L208.812 303.094L207.359 302.766L207.406 301.992H211.156Z" fill="#616161"/>
<path d="M55 224C55 212.954 63.9543 204 75 204H289C300.046 204 309 212.954 309 224V276H55V224Z" fill="#171717"/>
<path d="M72.94 252.12L73.22 251.36C73.3267 251.387 73.4333 251.4 73.54 251.4C73.6467 251.4 73.7667 251.4 73.9 251.4C74.7267 251.4 75.54 251.253 76.34 250.96C77.2733 250.56 77.8467 250 78.06 249.28C78.1667 248.8 78.2467 247.787 78.3 246.24C78.38 244.667 78.4333 242.547 78.46 239.88V233.44C78.46 232.507 78.4333 231.733 78.38 231.12C78.3533 230.507 78.2733 230.04 78.14 229.72C78.0333 229.32 77.7667 229.027 77.34 228.84L77.18 228.8C76.8067 228.8 76.0867 229.307 75.02 230.32C74.8333 230.533 74.6067 230.773 74.34 231.04C74.0733 231.307 73.7933 231.587 73.5 231.88V230.2C73.8733 229.933 74.3667 229.573 74.98 229.12C75.62 228.64 76.3933 228.053 77.3 227.36C78.02 226.773 78.6867 226.24 79.3 225.76C79.9133 225.28 80.46 224.867 80.94 224.52C81.1 224.387 81.2733 224.32 81.46 224.32C81.6733 224.32 81.78 224.467 81.78 224.76C81.78 224.92 81.7667 225.053 81.74 225.16C81.5533 226.307 81.3933 227.867 81.26 229.84C81.1533 231.787 81.1 234.147 81.1 236.92L81.14 239.92C81.14 244.747 81.26 247.867 81.5 249.28C81.6333 250.053 82.26 250.627 83.38 251C84.1 251.267 84.94 251.4 85.9 251.4C86.0867 251.4 86.2067 251.387 86.26 251.36L85.82 252.12C85.02 251.88 83.0467 251.72 79.9 251.64C79.3933 251.64 77.0733 251.8 72.94 252.12ZM96.9344 252.48C94.161 252.48 92.0144 251.12 90.4944 248.4C89.1877 246.053 88.5344 243.107 88.5344 239.56C88.5344 235.267 89.361 232.04 91.0144 229.88C91.8144 229.027 92.9077 227.813 94.2944 226.24C95.0144 225.387 96.3877 224.96 98.4144 224.96C101.028 224.96 103.108 226.4 104.654 229.28C106.014 231.84 106.694 234.907 106.694 238.48C106.694 242.373 105.908 245.347 104.334 247.4C104.014 247.747 103.601 248.2 103.094 248.76C102.588 249.32 101.988 250 101.294 250.8C100.468 251.92 99.0144 252.48 96.9344 252.48ZM98.7744 250.44C101.628 250.44 103.361 247.987 103.974 243.08C104.028 242.547 104.068 242.013 104.094 241.48C104.121 240.947 104.134 240.413 104.134 239.88C104.134 236.893 103.681 234.36 102.774 232.28C101.734 229.933 100.254 228.4 98.3344 227.68C97.641 227.413 96.9877 227.28 96.3744 227.28C93.521 227.28 91.8144 229.76 91.2544 234.72C91.201 235.227 91.161 235.733 91.1344 236.24C91.1077 236.747 91.0944 237.253 91.0944 237.76C91.0944 239.2 91.201 240.547 91.4144 241.8C91.6277 243.053 91.9477 244.2 92.3744 245.24C93.3344 247.613 94.7477 249.173 96.6144 249.92C97.3344 250.267 98.0544 250.44 98.7744 250.44ZM110.506 252.4C110.132 252.4 109.679 252.16 109.146 251.68C108.639 251.227 108.386 250.88 108.386 250.64C108.386 250.453 108.812 250.013 109.666 249.32C110.279 248.84 110.666 248.6 110.826 248.6C110.932 248.6 111.079 248.68 111.266 248.84C111.399 248.947 111.532 249.053 111.666 249.16C111.826 249.24 111.972 249.307 112.106 249.36C112.479 249.547 112.946 249.64 113.506 249.64C113.666 249.64 113.746 249.733 113.746 249.92C113.746 250.027 113.706 250.12 113.626 250.2C113.546 250.28 113.399 250.4 113.186 250.56C112.999 250.72 112.732 250.947 112.386 251.24C111.452 252.013 110.826 252.4 110.506 252.4ZM123.851 252.56C123.158 252.56 122.411 252.52 121.611 252.44C120.811 252.36 120.104 252.253 119.491 252.12C118.904 251.987 118.424 251.827 118.051 251.64C117.438 251.373 117.131 251.013 117.131 250.56V250.4C117.184 250.16 117.224 249.88 117.251 249.56C117.278 249.24 117.291 248.893 117.291 248.52C117.291 248.067 117.278 247.587 117.251 247.08C117.224 246.573 117.184 246.027 117.131 245.44L118.331 244.92C118.278 245.08 118.251 245.36 118.251 245.76C118.251 245.947 118.251 246.173 118.251 246.44C118.251 246.707 118.264 246.987 118.291 247.28C118.344 247.813 118.544 248.4 118.891 249.04C119.238 249.68 119.598 250.133 119.971 250.4C120.878 251.067 122.064 251.4 123.531 251.4H123.971C126.238 251.32 127.958 250.493 129.131 248.92C130.091 247.587 130.571 245.907 130.571 243.88C130.571 241.4 129.504 239.693 127.371 238.76C126.678 238.467 125.798 238.253 124.731 238.12C123.664 237.96 122.411 237.88 120.971 237.88C121.024 237.72 121.091 237.56 121.171 237.4C121.251 237.24 121.318 237.067 121.371 236.88C121.504 236.853 121.651 236.827 121.811 236.8C121.971 236.747 122.184 236.707 122.451 236.68C127.038 235.72 129.331 233.84 129.331 231.04C129.331 229.627 128.824 228.493 127.811 227.64C126.824 226.76 125.504 226.32 123.851 226.32C122.278 226.32 121.091 226.64 120.291 227.28C119.891 227.627 119.584 228.093 119.371 228.68C119.104 229.293 118.971 229.88 118.971 230.44C119.024 231.16 119.078 231.72 119.131 232.12C119.184 232.52 119.224 232.773 119.251 232.88L118.211 233.6C118.211 232.827 118.131 231.667 117.971 230.12C117.811 228.493 117.678 227.507 117.571 227.16C117.544 227.107 117.531 227.027 117.531 226.92C117.531 226.52 117.784 226.2 118.291 225.96C118.718 225.747 119.291 225.573 120.011 225.44C120.731 225.307 121.624 225.227 122.691 225.2L124.051 225.12H124.851C126.398 225.12 127.691 225.333 128.731 225.76C130.998 226.64 132.131 228.253 132.131 230.6C132.131 233.32 130.398 235.333 126.931 236.64C126.478 236.8 126.251 236.933 126.251 237.04C126.251 237.173 126.638 237.28 127.411 237.36C129.704 237.6 131.371 238.427 132.411 239.84C133.078 240.773 133.411 242.12 133.411 243.88C133.411 244.787 133.344 245.613 133.211 246.36C133.104 247.107 132.904 247.747 132.611 248.28C131.384 250.787 128.918 252.2 125.211 252.52C124.998 252.547 124.771 252.56 124.531 252.56C124.318 252.56 124.091 252.56 123.851 252.56ZM145.528 252.48C142.755 252.48 140.608 251.12 139.088 248.4C137.781 246.053 137.128 243.107 137.128 239.56C137.128 235.267 137.955 232.04 139.608 229.88C140.408 229.027 141.501 227.813 142.888 226.24C143.608 225.387 144.981 224.96 147.008 224.96C149.621 224.96 151.701 226.4 153.248 229.28C154.608 231.84 155.288 234.907 155.288 238.48C155.288 242.373 154.501 245.347 152.928 247.4C152.608 247.747 152.195 248.2 151.688 248.76C151.181 249.32 150.581 250 149.888 250.8C149.061 251.92 147.608 252.48 145.528 252.48ZM147.368 250.44C150.221 250.44 151.955 247.987 152.568 243.08C152.621 242.547 152.661 242.013 152.688 241.48C152.715 240.947 152.728 240.413 152.728 239.88C152.728 236.893 152.275 234.36 151.368 232.28C150.328 229.933 148.848 228.4 146.928 227.68C146.235 227.413 145.581 227.28 144.968 227.28C142.115 227.28 140.408 229.76 139.848 234.72C139.795 235.227 139.755 235.733 139.728 236.24C139.701 236.747 139.688 237.253 139.688 237.76C139.688 239.2 139.795 240.547 140.008 241.8C140.221 243.053 140.541 244.2 140.968 245.24C141.928 247.613 143.341 249.173 145.208 249.92C145.928 250.267 146.648 250.44 147.368 250.44ZM182.689 243.92C181.596 243.627 179.956 243.48 177.769 243.48C176.276 243.48 174.449 243.6 172.289 243.84C172.262 243.84 172.249 243.813 172.249 243.76C172.249 243.493 172.382 243.08 172.649 242.52C172.942 241.907 173.182 241.627 173.369 241.68C173.876 241.813 174.516 241.92 175.289 242C176.089 242.08 177.022 242.12 178.089 242.12C178.516 242.12 178.982 242.107 179.489 242.08C180.022 242.027 180.596 241.987 181.209 241.96C181.982 241.907 182.582 241.867 183.009 241.84C183.436 241.787 183.689 241.76 183.769 241.76C183.796 241.76 183.809 241.787 183.809 241.84C183.809 242.053 183.676 242.467 183.409 243.08C183.089 243.667 182.849 243.947 182.689 243.92ZM200.01 252.12L200.29 251.36C200.397 251.387 200.504 251.4 200.61 251.4C200.717 251.4 200.837 251.4 200.97 251.4C201.797 251.4 202.61 251.253 203.41 250.96C204.344 250.56 204.917 250 205.13 249.28C205.237 248.8 205.317 247.787 205.37 246.24C205.45 244.667 205.504 242.547 205.53 239.88V233.44C205.53 232.507 205.504 231.733 205.45 231.12C205.424 230.507 205.344 230.04 205.21 229.72C205.104 229.32 204.837 229.027 204.41 228.84L204.25 228.8C203.877 228.8 203.157 229.307 202.09 230.32C201.904 230.533 201.677 230.773 201.41 231.04C201.144 231.307 200.864 231.587 200.57 231.88V230.2C200.944 229.933 201.437 229.573 202.05 229.12C202.69 228.64 203.464 228.053 204.37 227.36C205.09 226.773 205.757 226.24 206.37 225.76C206.984 225.28 207.53 224.867 208.01 224.52C208.17 224.387 208.344 224.32 208.53 224.32C208.744 224.32 208.85 224.467 208.85 224.76C208.85 224.92 208.837 225.053 208.81 225.16C208.624 226.307 208.464 227.867 208.33 229.84C208.224 231.787 208.17 234.147 208.17 236.92L208.21 239.92C208.21 244.747 208.33 247.867 208.57 249.28C208.704 250.053 209.33 250.627 210.45 251C211.17 251.267 212.01 251.4 212.97 251.4C213.157 251.4 213.277 251.387 213.33 251.36L212.89 252.12C212.09 251.88 210.117 251.72 206.97 251.64C206.464 251.64 204.144 251.8 200.01 252.12ZM221.454 252.12L221.734 251.36C221.841 251.387 221.947 251.4 222.054 251.4C222.161 251.4 222.281 251.4 222.414 251.4C223.241 251.4 224.054 251.253 224.854 250.96C225.787 250.56 226.361 250 226.574 249.28C226.761 248.533 226.867 246.8 226.894 244.08H225.574C225.147 244.08 224.747 244.08 224.374 244.08C224.027 244.08 223.707 244.093 223.414 244.12C222.187 244.147 219.507 244.267 215.374 244.48C215.267 244.507 215.134 244.52 214.974 244.52C214.574 244.52 214.374 244.453 214.374 244.32C214.374 244.213 214.547 244.027 214.894 243.76C215.107 243.573 215.507 243.053 216.094 242.2C216.707 241.32 217.507 240.107 218.494 238.56L223.254 231.04C223.414 230.8 223.641 230.413 223.934 229.88C224.254 229.347 224.627 228.667 225.054 227.84C225.507 226.96 225.907 226.453 226.254 226.32C226.414 226.267 226.667 226.16 227.014 226C227.361 225.813 227.787 225.587 228.294 225.32C229.147 224.867 229.694 224.64 229.934 224.64C230.147 224.64 230.254 224.76 230.254 225V225.16C230.067 226.28 229.907 227.787 229.774 229.68C229.667 231.573 229.614 233.867 229.614 236.56V236.92L229.654 239.92V242C231.094 241.84 232.067 241.613 232.574 241.32C233.134 240.947 233.694 240.32 234.254 239.44C234.841 238.587 235.174 237.907 235.254 237.4L235.934 237.6C235.321 238.88 234.894 240.24 234.654 241.68C234.361 243.413 233.467 244.28 231.974 244.28H231.854H231.974C231.947 244.253 231.734 244.24 231.334 244.24C230.961 244.213 230.414 244.187 229.694 244.16V244.68C229.747 245.827 229.787 246.787 229.814 247.56C229.867 248.307 229.934 248.88 230.014 249.28C230.147 250.053 230.774 250.627 231.894 251C232.614 251.267 233.454 251.4 234.414 251.4C234.601 251.4 234.721 251.387 234.774 251.36L234.294 252.12C233.547 251.88 231.587 251.72 228.414 251.64C227.907 251.64 225.587 251.8 221.454 252.12ZM224.374 242.2C224.827 242.2 225.254 242.2 225.654 242.2C226.081 242.2 226.507 242.187 226.934 242.16L226.974 233.44C226.974 230.453 226.747 228.84 226.294 228.6C226.001 228.84 225.187 229.987 223.854 232.04C222.521 234.093 220.681 237.067 218.334 240.96C218.201 241.147 218.134 241.333 218.134 241.52C218.134 241.787 218.414 241.947 218.974 242C219.881 242.08 220.774 242.133 221.654 242.16C222.561 242.187 223.467 242.2 224.374 242.2ZM241.678 252.4C241.304 252.4 240.851 252.16 240.318 251.68C239.811 251.227 239.558 250.88 239.558 250.64C239.558 250.453 239.984 250.013 240.838 249.32C241.451 248.84 241.838 248.6 241.998 248.6C242.104 248.6 242.251 248.68 242.438 248.84C242.571 248.947 242.704 249.053 242.838 249.16C242.998 249.24 243.144 249.307 243.278 249.36C243.651 249.547 244.118 249.64 244.678 249.64C244.838 249.64 244.918 249.733 244.918 249.92C244.918 250.027 244.878 250.12 244.798 250.2C244.718 250.28 244.571 250.4 244.358 250.56C244.171 250.72 243.904 250.947 243.558 251.24C242.624 252.013 241.998 252.4 241.678 252.4ZM258.809 252.48C256.036 252.48 253.889 251.12 252.369 248.4C251.063 246.053 250.409 243.107 250.409 239.56C250.409 235.267 251.236 232.04 252.889 229.88C253.689 229.027 254.783 227.813 256.169 226.24C256.889 225.387 258.263 224.96 260.289 224.96C262.903 224.96 264.983 226.4 266.529 229.28C267.889 231.84 268.569 234.907 268.569 238.48C268.569 242.373 267.783 245.347 266.209 247.4C265.889 247.747 265.476 248.2 264.969 248.76C264.463 249.32 263.863 250 263.169 250.8C262.343 251.92 260.889 252.48 258.809 252.48ZM260.649 250.44C263.503 250.44 265.236 247.987 265.849 243.08C265.903 242.547 265.943 242.013 265.969 241.48C265.996 240.947 266.009 240.413 266.009 239.88C266.009 236.893 265.556 234.36 264.649 232.28C263.609 229.933 262.129 228.4 260.209 227.68C259.516 227.413 258.863 227.28 258.249 227.28C255.396 227.28 253.689 229.76 253.129 234.72C253.076 235.227 253.036 235.733 253.009 236.24C252.983 236.747 252.969 237.253 252.969 237.76C252.969 239.2 253.076 240.547 253.289 241.8C253.503 243.053 253.823 244.2 254.249 245.24C255.209 247.613 256.623 249.173 258.489 249.92C259.209 250.267 259.929 250.44 260.649 250.44ZM280.567 252.48C277.794 252.48 275.647 251.12 274.127 248.4C272.821 246.053 272.167 243.107 272.167 239.56C272.167 235.267 272.994 232.04 274.647 229.88C275.447 229.027 276.541 227.813 277.927 226.24C278.647 225.387 280.021 224.96 282.047 224.96C284.661 224.96 286.741 226.4 288.287 229.28C289.647 231.84 290.327 234.907 290.327 238.48C290.327 242.373 289.541 245.347 287.967 247.4C287.647 247.747 287.234 248.2 286.727 248.76C286.221 249.32 285.621 250 284.927 250.8C284.101 251.92 282.647 252.48 280.567 252.48ZM282.407 250.44C285.261 250.44 286.994 247.987 287.607 243.08C287.661 242.547 287.701 242.013 287.727 241.48C287.754 240.947 287.767 240.413 287.767 239.88C287.767 236.893 287.314 234.36 286.407 232.28C285.367 229.933 283.887 228.4 281.967 227.68C281.274 227.413 280.621 227.28 280.007 227.28C277.154 227.28 275.447 229.76 274.887 234.72C274.834 235.227 274.794 235.733 274.767 236.24C274.741 236.747 274.727 237.253 274.727 237.76C274.727 239.2 274.834 240.547 275.047 241.8C275.261 243.053 275.581 244.2 276.007 245.24C276.967 247.613 278.381 249.173 280.247 249.92C280.967 250.267 281.687 250.44 282.407 250.44Z" fill="#FDFDFD"/>
</g>
<line x1="42.5" y1="51" x2="42.5" y2="233" stroke="black" stroke-dasharray="4 4"/>
<g filter="url(#filter2_d_245_53)">
<circle cx="52" cy="50" r="10" fill="#FDFDFD"/>
<circle cx="52" cy="50" r="9" stroke="#171717" stroke-width="2" stroke-dasharray="2 2"/>
</g>
<g filter="url(#filter3_d_245_53)">
<circle cx="52" cy="50" r="6" fill="#FDFDFD"/>
<circle cx="52" cy="50" r="5" stroke="#171717" stroke-width="2" stroke-dasharray="2 2"/>
</g>
<g filter="url(#filter4_d_245_53)">
<circle cx="52" cy="238" r="10" fill="#FDFDFD"/>
<circle cx="52" cy="238" r="9" stroke="#171717" stroke-width="2" stroke-dasharray="2 2"/>
</g>
<g filter="url(#filter5_d_245_53)">
<circle cx="52" cy="238" r="6" fill="#FDFDFD"/>
<circle cx="52" cy="238" r="5" stroke="#171717" stroke-width="2" stroke-dasharray="2 2"/>
</g>
<defs>
<filter id="filter0_d_245_53" x="53" y="16" width="258" height="132" filterUnits="userSpaceOnUse" color-interpolation-filters="sRGB">
<feFlood flood-opacity="0" result="BackgroundImageFix"/>
<feColorMatrix in="SourceAlpha" type="matrix" values="0 0 0 0 0 0 0 0 0 0 0 0 0 0 0 0 0 0 127 0" result="hardAlpha"/>
<feOffset dy="2"/>
<feGaussianBlur stdDeviation="1"/>
<feComposite in2="hardAlpha" operator="out"/>
<feColorMatrix type="matrix" values="0 0 0 0 0 0 0 0 0 0 0 0 0 0 0 0 0 0 0.25 0"/>
<feBlend mode="normal" in2="BackgroundImageFix" result="effect1_dropShadow_245_53"/>
<feBlend mode="normal" in="SourceGraphic" in2="effect1_dropShadow_245_53" result="shape"/>
</filter>
<filter id="filter1_d_245_53" x="53" y="204" width="258" height="132" filterUnits="userSpaceOnUse" color-interpolation-filters="sRGB">
<feFlood flood-opacity="0" result="BackgroundImageFix"/>
<feColorMatrix in="SourceAlpha" type="matrix" values="0 0 0 0 0 0 0 0 0 0 0 0 0 0 0 0 0 0 127 0" result="hardAlpha"/>
<feOffset dy="2"/>
<feGaussianBlur stdDeviation="1"/>
<feComposite in2="hardAlpha" operator="out"/>
<feColorMatrix type="matrix" values="0 0 0 0 0 0 0 0 0 0 0 0 0 0 0 0 0 0 0.25 0"/>
<feBlend mode="normal" in2="BackgroundImageFix" result="effect1_dropShadow_245_53"/>
<feBlend mode="normal" in="SourceGraphic" in2="effect1_dropShadow_245_53" result="shape"/>
</filter>
<filter id="filter2_d_245_53" x="0" y="0" width="104" height="104" filterUnits="userSpaceOnUse" color-interpolation-filters="sRGB">
<feFlood flood-opacity="0" result="BackgroundImageFix"/>
<feColorMatrix in="SourceAlpha" type="matrix" values="0 0 0 0 0 0 0 0 0 0 0 0 0 0 0 0 0 0 127 0" result="hardAlpha"/>
<feOffset dy="2"/>
<feGaussianBlur stdDeviation="21"/>
<feComposite in2="hardAlpha" operator="out"/>
<feColorMatrix type="matrix" values="0 0 0 0 0 0 0 0 0 0 0 0 0 0 0 0 0 0 0.25 0"/>
<feBlend mode="normal" in2="BackgroundImageFix" result="effect1_dropShadow_245_53"/>
<feBlend mode="normal" in="SourceGraphic" in2="effect1_dropShadow_245_53" result="shape"/>
</filter>
<filter id="filter3_d_245_53" x="4" y="4" width="96" height="96" filterUnits="userSpaceOnUse" color-interpolation-filters="sRGB">
<feFlood flood-opacity="0" result="BackgroundImageFix"/>
<feColorMatrix in="SourceAlpha" type="matrix" values="0 0 0 0 0 0 0 0 0 0 0 0 0 0 0 0 0 0 127 0" result="hardAlpha"/>
<feOffset dy="2"/>
<feGaussianBlur stdDeviation="21"/>
<feComposite in2="hardAlpha" operator="out"/>
<feColorMatrix type="matrix" values="0 0 0 0 0 0 0 0 0 0 0 0 0 0 0 0 0 0 0.25 0"/>
<feBlend mode="normal" in2="BackgroundImageFix" result="effect1_dropShadow_245_53"/>
<feBlend mode="normal" in="SourceGraphic" in2="effect1_dropShadow_245_53" result="shape"/>
</filter>
<filter id="filter4_d_245_53" x="0" y="188" width="104" height="104" filterUnits="userSpaceOnUse" color-interpolation-filters="sRGB">
<feFlood flood-opacity="0" result="BackgroundImageFix"/>
<feColorMatrix in="SourceAlpha" type="matrix" values="0 0 0 0 0 0 0 0 0 0 0 0 0 0 0 0 0 0 127 0" result="hardAlpha"/>
<feOffset dy="2"/>
<feGaussianBlur stdDeviation="21"/>
<feComposite in2="hardAlpha" operator="out"/>
<feColorMatrix type="matrix" values="0 0 0 0 0 0 0 0 0 0 0 0 0 0 0 0 0 0 0.25 0"/>
<feBlend mode="normal" in2="BackgroundImageFix" result="effect1_dropShadow_245_53"/>
<feBlend mode="normal" in="SourceGraphic" in2="effect1_dropShadow_245_53" result="shape"/>
</filter>
<filter id="filter5_d_245_53" x="4" y="192" width="96" height="96" filterUnits="userSpaceOnUse" color-interpolation-filters="sRGB">
<feFlood flood-opacity="0" result="BackgroundImageFix"/>
<feColorMatrix in="SourceAlpha" type="matrix" values="0 0 0 0 0 0 0 0 0 0 0 0 0 0 0 0 0 0 127 0" result="hardAlpha"/>
<feOffset dy="2"/>
<feGaussianBlur stdDeviation="21"/>
<feComposite in2="hardAlpha" operator="out"/>
<feColorMatrix type="matrix" values="0 0 0 0 0 0 0 0 0 0 0 0 0 0 0 0 0 0 0.25 0"/>
<feBlend mode="normal" in2="BackgroundImageFix" result="effect1_dropShadow_245_53"/>
<feBlend mode="normal" in="SourceGraphic" in2="effect1_dropShadow_245_53" result="shape"/>
</filter>
</defs>
</svg>
