<svg width="311" height="336" viewBox="0 0 311 336" fill="none" xmlns="http://www.w3.org/2000/svg">
<g filter="url(#filter0_d_245_53)">
<path d="M55.5 76.5H308.5V124C308.5 134.77 299.77 143.5 289 143.5H75C64.2305 143.5 55.5 134.77 55.5 124V76.5Z" fill="#FDFDFD"/>
<path d="M55.5 76.5H308.5V124C308.5 134.77 299.77 143.5 289 143.5H75C64.2305 143.5 55.5 134.77 55.5 124V76.5Z" stroke="black"/>
<path d="M75.2891 107.641L75.5938 108.25C75.0625 108.5 74.6328 108.812 74.3047 109.188C73.9766 109.562 73.8125 110.016 73.8125 110.547C73.8125 110.766 73.8516 110.945 73.9297 111.086C74.0078 111.227 74.0938 111.352 74.1875 111.461C74.2969 111.555 74.3984 111.656 74.4922 111.766C74.6016 111.859 74.6875 111.984 74.75 112.141C74.8281 112.281 74.8672 112.461 74.8672 112.68C74.8672 112.961 74.7578 113.211 74.5391 113.43C74.3359 113.648 74.0547 113.758 73.6953 113.758C73.4609 113.758 73.2344 113.688 73.0156 113.547C72.8125 113.391 72.6484 113.18 72.5234 112.914C72.3984 112.633 72.3359 112.289 72.3359 111.883C72.3359 111.32 72.4688 110.75 72.7344 110.172C73 109.594 73.3594 109.078 73.8125 108.625C74.2656 108.172 74.7578 107.844 75.2891 107.641ZM75.7812 124L75.7344 123.18L76.8828 122.875L81.7109 110.57L82.9062 109.82L87.9219 122.875L89.0938 123.18L89.0234 124H84.7109L84.6641 123.18L86.0938 122.875L84.6875 119.266L84.4297 118.562L81.8047 111.977L82.2969 111.531L79.7188 118.586L79.4609 119.289L78.1719 122.875L79.6016 123.18L79.5547 124H75.7812ZM78.9453 119.57V118.422C79.2422 118.438 79.6641 118.453 80.2109 118.469C80.7578 118.484 81.4219 118.492 82.2031 118.492C82.9844 118.492 83.6484 118.484 84.1953 118.469C84.7578 118.453 85.1797 118.438 85.4609 118.422V119.57C84.8516 119.555 84.2656 119.547 83.7031 119.547C83.1562 119.531 82.6562 119.523 82.2031 119.523C81.7812 119.523 81.2969 119.531 80.75 119.547C80.2188 119.547 79.6172 119.555 78.9453 119.57ZM96.2422 129.156L96.1719 128.383L97.8594 128.031C97.875 127.812 97.8828 127.602 97.8828 127.398C97.8984 127.211 97.9062 126.961 97.9062 126.648C97.9219 126.352 97.9297 125.93 97.9297 125.383L97.9062 122.477L97.8359 122.453C97.3984 123.031 96.9219 123.461 96.4062 123.742C95.8906 124.023 95.3516 124.164 94.7891 124.164C93.8516 124.164 93.0391 123.961 92.3516 123.555C91.6641 123.133 91.1328 122.562 90.7578 121.844C90.3828 121.109 90.1953 120.273 90.1953 119.336C90.1953 118.133 90.4531 117.117 90.9688 116.289C91.4844 115.461 92.1406 114.836 92.9375 114.414C93.7344 113.992 94.5469 113.781 95.375 113.781C95.8594 113.781 96.3359 113.844 96.8047 113.969C97.2734 114.078 97.7031 114.242 98.0938 114.461L98.7266 113.828H99.4062C99.3906 114.391 99.375 114.945 99.3594 115.492C99.3438 116.023 99.3359 116.602 99.3359 117.227C99.3359 117.836 99.3359 118.539 99.3359 119.336L99.4062 124.633C99.4219 125.648 99.4375 126.414 99.4531 126.93C99.4844 127.461 99.5078 127.828 99.5234 128.031L100.977 128.383L100.906 129.156H96.2422ZM95.2109 122.805C95.7422 122.805 96.2031 122.703 96.5938 122.5C96.9844 122.281 97.4062 121.898 97.8594 121.352L97.8828 116.055C97.5703 115.602 97.1641 115.273 96.6641 115.07C96.1797 114.852 95.7031 114.742 95.2344 114.742C94.6719 114.742 94.1328 114.891 93.6172 115.188C93.1172 115.484 92.7031 115.93 92.375 116.523C92.0625 117.117 91.9062 117.875 91.9062 118.797C91.9062 120.062 92.2109 121.047 92.8203 121.75C93.4297 122.453 94.2266 122.805 95.2109 122.805ZM110.305 124.234L110.047 123.953L110.07 122.406H110C109.5 123.047 109 123.5 108.5 123.766C108.016 124.031 107.492 124.164 106.93 124.164C106.023 124.164 105.219 123.961 104.516 123.555C103.828 123.133 103.281 122.562 102.875 121.844C102.484 121.109 102.289 120.273 102.289 119.336C102.289 118.523 102.422 117.781 102.688 117.109C102.953 116.422 103.32 115.836 103.789 115.352C104.273 114.852 104.812 114.469 105.406 114.203C106.016 113.922 106.656 113.781 107.328 113.781C107.812 113.781 108.297 113.844 108.781 113.969C109.281 114.094 109.703 114.297 110.047 114.578C110.047 114.297 110.039 113.914 110.023 113.43C110.023 112.945 110.016 112.445 110 111.93C110 111.398 109.992 110.93 109.977 110.523C109.977 110.117 109.977 109.852 109.977 109.727L108.125 109.375L108.078 108.672L111.219 107.758L111.594 108.062C111.562 109.031 111.539 109.984 111.523 110.922C111.523 111.844 111.523 112.805 111.523 113.805L111.5 119.195C111.5 119.992 111.516 120.688 111.547 121.281C111.594 121.859 111.625 122.266 111.641 122.5L113.117 122.875V123.578L110.305 124.234ZM107.352 122.805C107.867 122.805 108.328 122.703 108.734 122.5C109.156 122.281 109.594 121.898 110.047 121.352V116.383C109.719 115.789 109.305 115.367 108.805 115.117C108.32 114.867 107.828 114.742 107.328 114.742C106.281 114.742 105.461 115.125 104.867 115.891C104.289 116.641 104 117.609 104 118.797C104 120.062 104.328 121.047 104.984 121.75C105.641 122.453 106.43 122.805 107.352 122.805Z" fill="#616161"/>
<path d="M55 36C55 24.9543 63.9543 16 75 16H289C300.046 16 309 24.9543 309 36V88H55V36Z" fill="#171717"/>
<path d="M81.2 64.48C78.4267 64.48 76.28 63.12 74.76 60.4C73.4533 58.0533 72.8 55.1067 72.8 51.56C72.8 47.2667 73.6267 44.04 75.28 41.88C76.08 41.0267 77.1733 39.8133 78.56 38.24C79.28 37.3867 80.6533 36.96 82.68 36.96C85.2933 36.96 87.3733 38.4 88.92 41.28C90.28 43.84 90.96 46.9067 90.96 50.48C90.96 54.3733 90.1733 57.3467 88.6 59.4C88.28 59.7467 87.8667 60.2 87.36 60.76C86.8533 61.32 86.2533 62 85.56 62.8C84.7333 63.92 83.28 64.48 81.2 64.48ZM83.04 62.44C85.8933 62.44 87.6267 59.9867 88.24 55.08C88.2933 54.5467 88.3333 54.0133 88.36 53.48C88.3867 52.9467 88.4 52.4133 88.4 51.88C88.4 48.8933 87.9467 46.36 87.04 44.28C86 41.9333 84.52 40.4 82.6 39.68C81.9067 39.4133 81.2533 39.28 80.64 39.28C77.7867 39.28 76.08 41.76 75.52 46.72C75.4667 47.2267 75.4267 47.7333 75.4 48.24C75.3733 48.7467 75.36 49.2533 75.36 49.76C75.36 51.2 75.4667 52.5467 75.68 53.8C75.8933 55.0533 76.2133 56.2 76.64 57.24C77.6 59.6133 79.0133 61.1733 80.88 61.92C81.6 62.2667 82.32 62.44 83.04 62.44ZM101.198 64.4C99.4111 64.4 97.8645 63.9733 96.5578 63.12C95.0911 62.1333 94.3578 60.7867 94.3578 59.08C94.3578 56.2 96.2378 53.4667 99.9978 50.88C99.2511 50.4267 98.5978 49.9867 98.0378 49.56C97.4778 49.1333 97.0378 48.6933 96.7178 48.24C95.8378 47.1467 95.3978 45.8 95.3978 44.2C95.3978 42.2 96.1445 40.48 97.6378 39.04C99.1578 37.6533 100.878 36.96 102.798 36.96C104.558 36.96 105.998 37.4 107.118 38.28C108.344 39.2667 108.958 40.64 108.958 42.4C108.958 44.6133 107.318 47 104.038 49.56C105.664 50.6 106.984 51.6533 107.998 52.72C109.011 53.7867 109.518 55.16 109.518 56.84C109.518 59.1067 108.678 60.9467 106.998 62.36C105.398 63.72 103.464 64.4 101.198 64.4ZM102.958 48.92C103.491 48.4933 103.984 48.04 104.438 47.56C104.918 47.0533 105.344 46.5067 105.718 45.92C106.198 45.2533 106.544 44.6133 106.758 44C106.971 43.3867 107.078 42.7867 107.078 42.2C107.078 40.8933 106.651 39.8533 105.798 39.08C104.971 38.2533 103.944 37.84 102.718 37.84C101.331 37.84 100.211 38.2933 99.3578 39.2C98.5578 40.08 98.1578 41.2533 98.1578 42.72C98.1578 44.1067 98.6645 45.3467 99.6778 46.44C100.318 47.16 101.411 47.9867 102.958 48.92ZM100.998 63.28C102.518 63.28 103.798 62.8267 104.838 61.92C105.318 61.4667 105.704 60.9333 105.998 60.32C106.291 59.7067 106.438 59.0267 106.438 58.28C106.438 56.68 105.918 55.3067 104.878 54.16C104.531 53.7867 104.038 53.3867 103.398 52.96C102.758 52.5067 101.998 52.0267 101.118 51.52C98.2111 53.7067 96.7578 56.0533 96.7578 58.56C96.7578 60 97.1178 61.12 97.8378 61.92C98.6111 62.8267 99.6645 63.28 100.998 63.28ZM115.279 64.4C114.906 64.4 114.452 64.16 113.919 63.68C113.412 63.2267 113.159 62.88 113.159 62.64C113.159 62.4533 113.586 62.0133 114.439 61.32C115.052 60.84 115.439 60.6 115.599 60.6C115.706 60.6 115.852 60.68 116.039 60.84C116.172 60.9467 116.306 61.0533 116.439 61.16C116.599 61.24 116.746 61.3067 116.879 61.36C117.252 61.5467 117.719 61.64 118.279 61.64C118.439 61.64 118.519 61.7333 118.519 61.92C118.519 62.0267 118.479 62.12 118.399 62.2C118.319 62.28 118.172 62.4 117.959 62.56C117.772 62.72 117.506 62.9467 117.159 63.24C116.226 64.0133 115.599 64.4 115.279 64.4ZM132.411 64.48C129.638 64.48 127.491 63.12 125.971 60.4C124.664 58.0533 124.011 55.1067 124.011 51.56C124.011 47.2667 124.838 44.04 126.491 41.88C127.291 41.0267 128.384 39.8133 129.771 38.24C130.491 37.3867 131.864 36.96 133.891 36.96C136.504 36.96 138.584 38.4 140.131 41.28C141.491 43.84 142.171 46.9067 142.171 50.48C142.171 54.3733 141.384 57.3467 139.811 59.4C139.491 59.7467 139.078 60.2 138.571 60.76C138.064 61.32 137.464 62 136.771 62.8C135.944 63.92 134.491 64.48 132.411 64.48ZM134.251 62.44C137.104 62.44 138.838 59.9867 139.451 55.08C139.504 54.5467 139.544 54.0133 139.571 53.48C139.598 52.9467 139.611 52.4133 139.611 51.88C139.611 48.8933 139.158 46.36 138.251 44.28C137.211 41.9333 135.731 40.4 133.811 39.68C133.118 39.4133 132.464 39.28 131.851 39.28C128.998 39.28 127.291 41.76 126.731 46.72C126.678 47.2267 126.638 47.7333 126.611 48.24C126.584 48.7467 126.571 49.2533 126.571 49.76C126.571 51.2 126.678 52.5467 126.891 53.8C127.104 55.0533 127.424 56.2 127.851 57.24C128.811 59.6133 130.224 61.1733 132.091 61.92C132.811 62.2667 133.531 62.44 134.251 62.44ZM154.169 64.48C151.395 64.48 149.249 63.12 147.729 60.4C146.422 58.0533 145.769 55.1067 145.769 51.56C145.769 47.2667 146.595 44.04 148.249 41.88C149.049 41.0267 150.142 39.8133 151.529 38.24C152.249 37.3867 153.622 36.96 155.649 36.96C158.262 36.96 160.342 38.4 161.889 41.28C163.249 43.84 163.929 46.9067 163.929 50.48C163.929 54.3733 163.142 57.3467 161.569 59.4C161.249 59.7467 160.835 60.2 160.329 60.76C159.822 61.32 159.222 62 158.529 62.8C157.702 63.92 156.249 64.48 154.169 64.48ZM156.009 62.44C158.862 62.44 160.595 59.9867 161.209 55.08C161.262 54.5467 161.302 54.0133 161.329 53.48C161.355 52.9467 161.369 52.4133 161.369 51.88C161.369 48.8933 160.915 46.36 160.009 44.28C158.969 41.9333 157.489 40.4 155.569 39.68C154.875 39.4133 154.222 39.28 153.609 39.28C150.755 39.28 149.049 41.76 148.489 46.72C148.435 47.2267 148.395 47.7333 148.369 48.24C148.342 48.7467 148.329 49.2533 148.329 49.76C148.329 51.2 148.435 52.5467 148.649 53.8C148.862 55.0533 149.182 56.2 149.609 57.24C150.569 59.6133 151.982 61.1733 153.849 61.92C154.569 62.2667 155.289 62.44 156.009 62.44ZM191.33 55.92C190.236 55.6267 188.596 55.48 186.41 55.48C184.916 55.48 183.09 55.6 180.93 55.84C180.903 55.84 180.89 55.8133 180.89 55.76C180.89 55.4933 181.023 55.08 181.29 54.52C181.583 53.9067 181.823 53.6267 182.01 53.68C182.516 53.8133 183.156 53.92 183.93 54C184.73 54.08 185.663 54.12 186.73 54.12C187.156 54.12 187.623 54.1067 188.13 54.08C188.663 54.0267 189.236 53.9867 189.85 53.96C190.623 53.9067 191.223 53.8667 191.65 53.84C192.076 53.7867 192.33 53.76 192.41 53.76C192.436 53.76 192.45 53.7867 192.45 53.84C192.45 54.0533 192.316 54.4667 192.05 55.08C191.73 55.6667 191.49 55.9467 191.33 55.92ZM208.651 64.12L208.931 63.36C209.038 63.3867 209.144 63.4 209.251 63.4C209.358 63.4 209.478 63.4 209.611 63.4C210.438 63.4 211.251 63.2533 212.051 62.96C212.984 62.56 213.558 62 213.771 61.28C213.878 60.8 213.958 59.7867 214.011 58.24C214.091 56.6667 214.144 54.5467 214.171 51.88V45.44C214.171 44.5067 214.144 43.7333 214.091 43.12C214.064 42.5067 213.984 42.04 213.851 41.72C213.744 41.32 213.478 41.0267 213.051 40.84L212.891 40.8C212.518 40.8 211.798 41.3067 210.731 42.32C210.544 42.5333 210.318 42.7733 210.051 43.04C209.784 43.3067 209.504 43.5867 209.211 43.88V42.2C209.584 41.9333 210.078 41.5733 210.691 41.12C211.331 40.64 212.104 40.0533 213.011 39.36C213.731 38.7733 214.398 38.24 215.011 37.76C215.624 37.28 216.171 36.8667 216.651 36.52C216.811 36.3867 216.984 36.32 217.171 36.32C217.384 36.32 217.491 36.4667 217.491 36.76C217.491 36.92 217.478 37.0533 217.451 37.16C217.264 38.3067 217.104 39.8667 216.971 41.84C216.864 43.7867 216.811 46.1467 216.811 48.92L216.851 51.92C216.851 56.7467 216.971 59.8667 217.211 61.28C217.344 62.0533 217.971 62.6267 219.091 63C219.811 63.2667 220.651 63.4 221.611 63.4C221.798 63.4 221.918 63.3867 221.971 63.36L221.531 64.12C220.731 63.88 218.758 63.72 215.611 63.64C215.104 63.64 212.784 63.8 208.651 64.12ZM232.645 64.48C229.872 64.48 227.725 63.12 226.205 60.4C224.899 58.0533 224.245 55.1067 224.245 51.56C224.245 47.2667 225.072 44.04 226.725 41.88C227.525 41.0267 228.619 39.8133 230.005 38.24C230.725 37.3867 232.099 36.96 234.125 36.96C236.739 36.96 238.819 38.4 240.365 41.28C241.725 43.84 242.405 46.9067 242.405 50.48C242.405 54.3733 241.619 57.3467 240.045 59.4C239.725 59.7467 239.312 60.2 238.805 60.76C238.299 61.32 237.699 62 237.005 62.8C236.179 63.92 234.725 64.48 232.645 64.48ZM234.485 62.44C237.339 62.44 239.072 59.9867 239.685 55.08C239.739 54.5467 239.779 54.0133 239.805 53.48C239.832 52.9467 239.845 52.4133 239.845 51.88C239.845 48.8933 239.392 46.36 238.485 44.28C237.445 41.9333 235.965 40.4 234.045 39.68C233.352 39.4133 232.699 39.28 232.085 39.28C229.232 39.28 227.525 41.76 226.965 46.72C226.912 47.2267 226.872 47.7333 226.845 48.24C226.819 48.7467 226.805 49.2533 226.805 49.76C226.805 51.2 226.912 52.5467 227.125 53.8C227.339 55.0533 227.659 56.2 228.085 57.24C229.045 59.6133 230.459 61.1733 232.325 61.92C233.045 62.2667 233.765 62.44 234.485 62.44ZM246.217 64.4C245.843 64.4 245.39 64.16 244.857 63.68C244.35 63.2267 244.097 62.88 244.097 62.64C244.097 62.4533 244.523 62.0133 245.377 61.32C245.99 60.84 246.377 60.6 246.537 60.6C246.643 60.6 246.79 60.68 246.977 60.84C247.11 60.9467 247.243 61.0533 247.377 61.16C247.537 61.24 247.683 61.3067 247.817 61.36C248.19 61.5467 248.657 61.64 249.217 61.64C249.377 61.64 249.457 61.7333 249.457 61.92C249.457 62.0267 249.417 62.12 249.337 62.2C249.257 62.28 249.11 62.4 248.897 62.56C248.71 62.72 248.443 62.9467 248.097 63.24C247.163 64.0133 246.537 64.4 246.217 64.4ZM259.562 64.56C258.869 64.56 258.122 64.52 257.322 64.44C256.522 64.36 255.815 64.2533 255.202 64.12C254.615 63.9867 254.135 63.8267 253.762 63.64C253.149 63.3733 252.842 63.0133 252.842 62.56V62.4C252.895 62.16 252.935 61.88 252.962 61.56C252.989 61.24 253.002 60.8933 253.002 60.52C253.002 60.0667 252.989 59.5867 252.962 59.08C252.935 58.5733 252.895 58.0267 252.842 57.44L254.042 56.92C253.989 57.08 253.962 57.36 253.962 57.76C253.962 57.9467 253.962 58.1733 253.962 58.44C253.962 58.7067 253.975 58.9867 254.002 59.28C254.055 59.8133 254.255 60.4 254.602 61.04C254.949 61.68 255.309 62.1333 255.682 62.4C256.589 63.0667 257.775 63.4 259.242 63.4H259.682C261.949 63.32 263.669 62.4933 264.842 60.92C265.802 59.5867 266.282 57.9067 266.282 55.88C266.282 53.4 265.215 51.6933 263.082 50.76C262.389 50.4667 261.509 50.2533 260.442 50.12C259.375 49.96 258.122 49.88 256.682 49.88C256.735 49.72 256.802 49.56 256.882 49.4C256.962 49.24 257.029 49.0667 257.082 48.88C257.215 48.8533 257.362 48.8267 257.522 48.8C257.682 48.7467 257.895 48.7067 258.162 48.68C262.749 47.72 265.042 45.84 265.042 43.04C265.042 41.6267 264.535 40.4933 263.522 39.64C262.535 38.76 261.215 38.32 259.562 38.32C257.989 38.32 256.802 38.64 256.002 39.28C255.602 39.6267 255.295 40.0933 255.082 40.68C254.815 41.2933 254.682 41.88 254.682 42.44C254.735 43.16 254.789 43.72 254.842 44.12C254.895 44.52 254.935 44.7733 254.962 44.88L253.922 45.6C253.922 44.8267 253.842 43.6667 253.682 42.12C253.522 40.4933 253.389 39.5067 253.282 39.16C253.255 39.1067 253.242 39.0267 253.242 38.92C253.242 38.52 253.495 38.2 254.002 37.96C254.429 37.7467 255.002 37.5733 255.722 37.44C256.442 37.3067 257.335 37.2267 258.402 37.2L259.762 37.12H260.562C262.109 37.12 263.402 37.3333 264.442 37.76C266.709 38.64 267.842 40.2533 267.842 42.6C267.842 45.32 266.109 47.3333 262.642 48.64C262.189 48.8 261.962 48.9333 261.962 49.04C261.962 49.1733 262.349 49.28 263.122 49.36C265.415 49.6 267.082 50.4267 268.122 51.84C268.789 52.7733 269.122 54.12 269.122 55.88C269.122 56.7867 269.055 57.6133 268.922 58.36C268.815 59.1067 268.615 59.7467 268.322 60.28C267.095 62.7867 264.629 64.2 260.922 64.52C260.709 64.5467 260.482 64.56 260.242 64.56C260.029 64.56 259.802 64.56 259.562 64.56ZM281.239 64.48C278.466 64.48 276.319 63.12 274.799 60.4C273.492 58.0533 272.839 55.1067 272.839 51.56C272.839 47.2667 273.666 44.04 275.319 41.88C276.119 41.0267 277.212 39.8133 278.599 38.24C279.319 37.3867 280.692 36.96 282.719 36.96C285.332 36.96 287.412 38.4 288.959 41.28C290.319 43.84 290.999 46.9067 290.999 50.48C290.999 54.3733 290.212 57.3467 288.639 59.4C288.319 59.7467 287.906 60.2 287.399 60.76C286.892 61.32 286.292 62 285.599 62.8C284.772 63.92 283.319 64.48 281.239 64.48ZM283.079 62.44C285.932 62.44 287.666 59.9867 288.279 55.08C288.332 54.5467 288.372 54.0133 288.399 53.48C288.426 52.9467 288.439 52.4133 288.439 51.88C288.439 48.8933 287.986 46.36 287.079 44.28C286.039 41.9333 284.559 40.4 282.639 39.68C281.946 39.4133 281.292 39.28 280.679 39.28C277.826 39.28 276.119 41.76 275.559 46.72C275.506 47.2267 275.466 47.7333 275.439 48.24C275.412 48.7467 275.399 49.2533 275.399 49.76C275.399 51.2 275.506 52.5467 275.719 53.8C275.932 55.0533 276.252 56.2 276.679 57.24C277.639 59.6133 279.052 61.1733 280.919 61.92C281.639 62.2667 282.359 62.44 283.079 62.44Z" fill="#FDFDFD"/>
</g>
<g filter="url(#filter1_d_245_53)">
<path d="M55.5 264.5H308.5V312C308.5 322.77 299.77 331.5 289 331.5H75C64.2305 331.5 55.5 322.77 55.5 312V264.5Z" fill="#FDFDFD"/>
<path d="M55.5 264.5H308.5V312C308.5 322.77 299.77 331.5 289 331.5H75C64.2305 331.5 55.5 322.77 55.5 312V264.5Z" stroke="black"/>
<path d="M72.2891 312L72.2422 311.18L73.6719 310.828C73.6719 310.719 73.6719 310.562 73.6719 310.359C73.6875 310.141 73.6953 309.883 73.6953 309.586C73.6953 309.273 73.6953 308.938 73.6953 308.578C73.7109 308.219 73.7188 307.852 73.7188 307.477V302.789C73.7188 302.055 73.7109 301.445 73.6953 300.961C73.6953 300.477 73.6875 300.109 73.6719 299.859C73.6719 299.594 73.6562 299.43 73.625 299.367L72.2188 299.062L72.2656 298.242H77.1172C78.5078 298.242 79.5781 298.531 80.3281 299.109C81.0781 299.672 81.4531 300.492 81.4531 301.57C81.4531 302.336 81.2422 303.023 80.8203 303.633C80.4141 304.227 79.8438 304.695 79.1094 305.039C78.375 305.383 77.5312 305.555 76.5781 305.555H75.0547V304.57H76.5078C77.5391 304.57 78.3281 304.328 78.875 303.844C79.4219 303.359 79.6953 302.68 79.6953 301.805C79.6953 300.945 79.4531 300.297 78.9688 299.859C78.5 299.422 77.8047 299.203 76.8828 299.203H75.4062C75.3906 299.234 75.375 299.281 75.3594 299.344C75.3594 299.391 75.3594 299.508 75.3594 299.695C75.3594 299.867 75.3594 300.172 75.3594 300.609C75.3594 301.031 75.3594 301.625 75.3594 302.391V307.477C75.3594 308.227 75.3594 308.82 75.3594 309.258C75.375 309.695 75.3906 310.031 75.4062 310.266C75.4219 310.5 75.4375 310.688 75.4531 310.828L76.8594 311.18L76.8125 312H72.2891ZM83.0938 312.211C82.4688 312.211 81.9062 312.086 81.4062 311.836C80.9219 311.586 80.4375 311.156 79.9531 310.547C79.4688 309.938 78.9141 309.109 78.2891 308.062L76.6016 305.156L78.125 304.805L80.5859 308.484C81.0547 309.188 81.4688 309.734 81.8281 310.125C82.1875 310.516 82.5391 310.805 82.8828 310.992C83.2266 311.18 83.6016 311.312 84.0078 311.391L83.9844 312.141C83.8594 312.172 83.7109 312.188 83.5391 312.188C83.3828 312.203 83.2344 312.211 83.0938 312.211ZM89.4219 312.188C88.5469 312.188 87.75 311.992 87.0312 311.602C86.3281 311.211 85.7656 310.641 85.3438 309.891C84.9219 309.141 84.7109 308.242 84.7109 307.195C84.7109 306.07 84.9297 305.109 85.3672 304.312C85.8047 303.5 86.3828 302.875 87.1016 302.438C87.8203 302 88.5938 301.789 89.4219 301.805C90.5781 301.82 91.4922 302.211 92.1641 302.977C92.8359 303.742 93.1719 304.875 93.1719 306.375V306.773H85.8828V305.789H91.8594L91.625 306.023V305.602C91.625 304.664 91.4062 303.945 90.9688 303.445C90.5469 302.93 89.9688 302.672 89.2344 302.672C88.7656 302.672 88.3125 302.812 87.875 303.094C87.4531 303.359 87.1094 303.766 86.8438 304.312C86.5781 304.859 86.4453 305.547 86.4453 306.375V306.609C86.4453 307.938 86.7656 308.969 87.4062 309.703C88.0469 310.438 88.8672 310.805 89.8672 310.805C90.4297 310.805 90.9297 310.695 91.3672 310.477C91.8047 310.258 92.2266 309.898 92.6328 309.398L93.1953 309.891C92.7578 310.672 92.2188 311.25 91.5781 311.625C90.9375 312 90.2188 312.188 89.4219 312.188ZM99.8047 312.188C98.9609 312.188 98.1797 311.992 97.4609 311.602C96.7422 311.211 96.1641 310.641 95.7266 309.891C95.3047 309.141 95.0938 308.234 95.0938 307.172C95.0938 306.141 95.3203 305.227 95.7734 304.43C96.2266 303.617 96.8438 302.977 97.625 302.508C98.4062 302.039 99.2734 301.805 100.227 301.805C100.914 301.805 101.477 301.891 101.914 302.062C102.367 302.219 102.703 302.43 102.922 302.695C103.156 302.961 103.273 303.234 103.273 303.516C103.273 303.75 103.203 303.945 103.062 304.102C102.938 304.242 102.742 304.312 102.477 304.312C102.227 304.312 102.016 304.266 101.844 304.172C101.688 304.078 101.477 303.891 101.211 303.609L100.156 302.484L100.883 302.719C100.227 302.578 99.5859 302.641 98.9609 302.906C98.3516 303.156 97.8438 303.617 97.4375 304.289C97.0312 304.945 96.8281 305.797 96.8281 306.844C96.8281 308.109 97.1562 309.086 97.8125 309.773C98.4688 310.461 99.2812 310.805 100.25 310.805C100.891 310.805 101.422 310.695 101.844 310.477C102.281 310.258 102.695 309.906 103.086 309.422L103.672 309.914C103.234 310.68 102.695 311.25 102.055 311.625C101.414 312 100.664 312.188 99.8047 312.188ZM109.438 312.188C108.562 312.188 107.766 311.992 107.047 311.602C106.344 311.211 105.781 310.641 105.359 309.891C104.938 309.141 104.727 308.242 104.727 307.195C104.727 306.07 104.945 305.109 105.383 304.312C105.82 303.5 106.398 302.875 107.117 302.438C107.836 302 108.609 301.789 109.438 301.805C110.594 301.82 111.508 302.211 112.18 302.977C112.852 303.742 113.188 304.875 113.188 306.375V306.773H105.898V305.789H111.875L111.641 306.023V305.602C111.641 304.664 111.422 303.945 110.984 303.445C110.562 302.93 109.984 302.672 109.25 302.672C108.781 302.672 108.328 302.812 107.891 303.094C107.469 303.359 107.125 303.766 106.859 304.312C106.594 304.859 106.461 305.547 106.461 306.375V306.609C106.461 307.938 106.781 308.969 107.422 309.703C108.062 310.438 108.883 310.805 109.883 310.805C110.445 310.805 110.945 310.695 111.383 310.477C111.82 310.258 112.242 309.898 112.648 309.398L113.211 309.891C112.773 310.672 112.234 311.25 111.594 311.625C110.953 312 110.234 312.188 109.438 312.188ZM114.875 317.156L114.828 316.383L116.281 316.031C116.281 315.953 116.281 315.828 116.281 315.656C116.297 315.484 116.305 315.25 116.305 314.953C116.32 314.672 116.328 314.32 116.328 313.898C116.344 313.492 116.352 313.008 116.352 312.445L116.398 306.328C116.398 305.859 116.375 305.367 116.328 304.852C116.297 304.32 116.266 303.93 116.234 303.68L114.734 303.352V302.648L117.594 301.852L117.922 302.203L117.828 303.469H117.898C118.352 302.906 118.836 302.492 119.352 302.227C119.867 301.945 120.422 301.805 121.016 301.805C121.906 301.805 122.688 302.023 123.359 302.461C124.031 302.898 124.555 303.492 124.93 304.242C125.305 304.992 125.492 305.836 125.492 306.773C125.492 307.82 125.258 308.75 124.789 309.562C124.32 310.375 123.688 311.016 122.891 311.484C122.109 311.938 121.234 312.164 120.266 312.164C119.859 312.164 119.438 312.117 119 312.023C118.578 311.945 118.195 311.844 117.852 311.719V313.57C117.852 314.18 117.859 314.688 117.875 315.094C117.906 315.5 117.93 315.812 117.945 316.031L119.867 316.312L119.82 317.156H114.875ZM120.359 311.156C121.016 311.156 121.594 311 122.094 310.688C122.609 310.359 123.008 309.898 123.289 309.305C123.586 308.711 123.742 307.992 123.758 307.148C123.773 306.414 123.648 305.75 123.383 305.156C123.117 304.547 122.742 304.062 122.258 303.703C121.773 303.328 121.211 303.141 120.57 303.141C120.039 303.141 119.547 303.266 119.094 303.516C118.641 303.766 118.227 304.125 117.852 304.594V310.359C118.18 310.625 118.562 310.828 119 310.969C119.453 311.094 119.906 311.156 120.359 311.156ZM134.398 310.688C134.086 311.156 133.688 311.523 133.203 311.789C132.719 312.039 132.219 312.164 131.703 312.164C130.797 312.164 130.047 311.883 129.453 311.32C128.859 310.758 128.562 309.914 128.562 308.789L128.633 303.094H126.992V302.672L129.758 300.023H130.109L130.062 302.555L130.039 308.391C130.039 309.25 130.219 309.891 130.578 310.312C130.953 310.734 131.469 310.945 132.125 310.945C132.5 310.945 132.844 310.875 133.156 310.734C133.484 310.578 133.773 310.375 134.023 310.125L134.398 310.688ZM129.383 303.094V302.016H133.672V303.094H129.383ZM134.984 312L134.938 311.203L136.508 310.875C136.523 310.812 136.531 310.719 136.531 310.594C136.547 310.453 136.555 310.211 136.555 309.867C136.57 309.508 136.578 309 136.578 308.344V306.867C136.578 306.164 136.562 305.523 136.531 304.945C136.5 304.352 136.469 303.93 136.438 303.68L134.867 303.352V302.648L137.914 301.852L138.172 302.133C138.141 302.617 138.109 303.094 138.078 303.562C138.062 304.016 138.055 304.555 138.055 305.18V308.133C138.055 308.898 138.062 309.516 138.078 309.984C138.109 310.453 138.133 310.75 138.148 310.875L139.719 311.203L139.672 312H134.984ZM137.328 298.992C136.984 298.992 136.68 298.875 136.414 298.641C136.148 298.406 136.016 298.109 136.016 297.75C136.016 297.391 136.148 297.094 136.414 296.859C136.68 296.625 136.984 296.508 137.328 296.508C137.672 296.508 137.969 296.625 138.219 296.859C138.469 297.094 138.594 297.391 138.594 297.75C138.594 298.109 138.469 298.406 138.219 298.641C137.969 298.875 137.672 298.992 137.328 298.992ZM146.305 312.188C145.305 312.188 144.43 311.969 143.68 311.531C142.945 311.094 142.375 310.484 141.969 309.703C141.562 308.906 141.359 308 141.359 306.984C141.359 305.953 141.578 305.055 142.016 304.289C142.469 303.508 143.078 302.898 143.844 302.461C144.609 302.023 145.453 301.805 146.375 301.805C147.328 301.805 148.156 302.016 148.859 302.438C149.562 302.859 150.109 303.461 150.5 304.242C150.891 305.008 151.086 305.898 151.086 306.914C151.086 307.898 150.875 308.789 150.453 309.586C150.031 310.367 149.453 311 148.719 311.484C148 311.953 147.195 312.188 146.305 312.188ZM146.516 311.203C147.094 311.203 147.594 311.031 148.016 310.688C148.438 310.344 148.766 309.875 149 309.281C149.25 308.688 149.375 308.016 149.375 307.266C149.375 305.922 149.078 304.836 148.484 304.008C147.891 303.164 147.117 302.742 146.164 302.742C145.258 302.742 144.523 303.109 143.961 303.844C143.398 304.562 143.117 305.523 143.117 306.727C143.117 307.617 143.266 308.398 143.562 309.07C143.859 309.742 144.266 310.266 144.781 310.641C145.297 311.016 145.875 311.203 146.516 311.203ZM152.914 312L152.867 311.227L154.32 310.875C154.336 310.75 154.344 310.602 154.344 310.43C154.359 310.242 154.367 309.984 154.367 309.656C154.383 309.328 154.391 308.891 154.391 308.344L154.414 306.516C154.414 305.984 154.391 305.445 154.344 304.898C154.312 304.336 154.281 303.93 154.25 303.68L152.75 303.352V302.648L155.609 301.852L155.938 302.203L155.82 303.422L155.891 303.445C156.469 302.852 157.016 302.43 157.531 302.18C158.047 301.93 158.609 301.805 159.219 301.805C159.766 301.805 160.289 301.945 160.789 302.227C161.289 302.492 161.703 302.922 162.031 303.516C162.359 304.094 162.523 304.844 162.523 305.766V308.414C162.523 308.992 162.539 309.508 162.57 309.961C162.602 310.414 162.633 310.719 162.664 310.875L164.117 311.227L164.07 312H159.688L159.641 311.227L161 310.875C161.016 310.75 161.031 310.609 161.047 310.453C161.062 310.281 161.07 310.055 161.07 309.773C161.086 309.477 161.094 309.094 161.094 308.625V305.93C161.094 305.195 160.961 304.617 160.695 304.195C160.43 303.773 160.102 303.477 159.711 303.305C159.336 303.117 158.969 303.023 158.609 303.023C158.062 303.023 157.555 303.164 157.086 303.445C156.617 303.711 156.211 304.086 155.867 304.57V308.133C155.867 308.898 155.875 309.5 155.891 309.938C155.922 310.375 155.945 310.688 155.961 310.875L157.414 311.227L157.367 312H152.914Z" fill="#616161"/>
<path d="M55 224C55 212.954 63.9543 204 75 204H289C300.046 204 309 212.954 309 224V276H55V224Z" fill="#171717"/>
<path d="M72.94 252.12L73.22 251.36C73.3267 251.387 73.4333 251.4 73.54 251.4C73.6467 251.4 73.7667 251.4 73.9 251.4C74.7267 251.4 75.54 251.253 76.34 250.96C77.2733 250.56 77.8467 250 78.06 249.28C78.1667 248.8 78.2467 247.787 78.3 246.24C78.38 244.667 78.4333 242.547 78.46 239.88V233.44C78.46 232.507 78.4333 231.733 78.38 231.12C78.3533 230.507 78.2733 230.04 78.14 229.72C78.0333 229.32 77.7667 229.027 77.34 228.84L77.18 228.8C76.8067 228.8 76.0867 229.307 75.02 230.32C74.8333 230.533 74.6067 230.773 74.34 231.04C74.0733 231.307 73.7933 231.587 73.5 231.88V230.2C73.8733 229.933 74.3667 229.573 74.98 229.12C75.62 228.64 76.3933 228.053 77.3 227.36C78.02 226.773 78.6867 226.24 79.3 225.76C79.9133 225.28 80.46 224.867 80.94 224.52C81.1 224.387 81.2733 224.32 81.46 224.32C81.6733 224.32 81.78 224.467 81.78 224.76C81.78 224.92 81.7667 225.053 81.74 225.16C81.5533 226.307 81.3933 227.867 81.26 229.84C81.1533 231.787 81.1 234.147 81.1 236.92L81.14 239.92C81.14 244.747 81.26 247.867 81.5 249.28C81.6333 250.053 82.26 250.627 83.38 251C84.1 251.267 84.94 251.4 85.9 251.4C86.0867 251.4 86.2067 251.387 86.26 251.36L85.82 252.12C85.02 251.88 83.0467 251.72 79.9 251.64C79.3933 251.64 77.0733 251.8 72.94 252.12ZM96.9344 252.48C94.161 252.48 92.0144 251.12 90.4944 248.4C89.1877 246.053 88.5344 243.107 88.5344 239.56C88.5344 235.267 89.361 232.04 91.0144 229.88C91.8144 229.027 92.9077 227.813 94.2944 226.24C95.0144 225.387 96.3877 224.96 98.4144 224.96C101.028 224.96 103.108 226.4 104.654 229.28C106.014 231.84 106.694 234.907 106.694 238.48C106.694 242.373 105.908 245.347 104.334 247.4C104.014 247.747 103.601 248.2 103.094 248.76C102.588 249.32 101.988 250 101.294 250.8C100.468 251.92 99.0144 252.48 96.9344 252.48ZM98.7744 250.44C101.628 250.44 103.361 247.987 103.974 243.08C104.028 242.547 104.068 242.013 104.094 241.48C104.121 240.947 104.134 240.413 104.134 239.88C104.134 236.893 103.681 234.36 102.774 232.28C101.734 229.933 100.254 228.4 98.3344 227.68C97.641 227.413 96.9877 227.28 96.3744 227.28C93.521 227.28 91.8144 229.76 91.2544 234.72C91.201 235.227 91.161 235.733 91.1344 236.24C91.1077 236.747 91.0944 237.253 91.0944 237.76C91.0944 239.2 91.201 240.547 91.4144 241.8C91.6277 243.053 91.9477 244.2 92.3744 245.24C93.3344 247.613 94.7477 249.173 96.6144 249.92C97.3344 250.267 98.0544 250.44 98.7744 250.44ZM110.506 252.4C110.132 252.4 109.679 252.16 109.146 251.68C108.639 251.227 108.386 250.88 108.386 250.64C108.386 250.453 108.812 250.013 109.666 249.32C110.279 248.84 110.666 248.6 110.826 248.6C110.932 248.6 111.079 248.68 111.266 248.84C111.399 248.947 111.532 249.053 111.666 249.16C111.826 249.24 111.972 249.307 112.106 249.36C112.479 249.547 112.946 249.64 113.506 249.64C113.666 249.64 113.746 249.733 113.746 249.92C113.746 250.027 113.706 250.12 113.626 250.2C113.546 250.28 113.399 250.4 113.186 250.56C112.999 250.72 112.732 250.947 112.386 251.24C111.452 252.013 110.826 252.4 110.506 252.4ZM123.851 252.56C123.158 252.56 122.411 252.52 121.611 252.44C120.811 252.36 120.104 252.253 119.491 252.12C118.904 251.987 118.424 251.827 118.051 251.64C117.438 251.373 117.131 251.013 117.131 250.56V250.4C117.184 250.16 117.224 249.88 117.251 249.56C117.278 249.24 117.291 248.893 117.291 248.52C117.291 248.067 117.278 247.587 117.251 247.08C117.224 246.573 117.184 246.027 117.131 245.44L118.331 244.92C118.278 245.08 118.251 245.36 118.251 245.76C118.251 245.947 118.251 246.173 118.251 246.44C118.251 246.707 118.264 246.987 118.291 247.28C118.344 247.813 118.544 248.4 118.891 249.04C119.238 249.68 119.598 250.133 119.971 250.4C120.878 251.067 122.064 251.4 123.531 251.4H123.971C126.238 251.32 127.958 250.493 129.131 248.92C130.091 247.587 130.571 245.907 130.571 243.88C130.571 241.4 129.504 239.693 127.371 238.76C126.678 238.467 125.798 238.253 124.731 238.12C123.664 237.96 122.411 237.88 120.971 237.88C121.024 237.72 121.091 237.56 121.171 237.4C121.251 237.24 121.318 237.067 121.371 236.88C121.504 236.853 121.651 236.827 121.811 236.8C121.971 236.747 122.184 236.707 122.451 236.68C127.038 235.72 129.331 233.84 129.331 231.04C129.331 229.627 128.824 228.493 127.811 227.64C126.824 226.76 125.504 226.32 123.851 226.32C122.278 226.32 121.091 226.64 120.291 227.28C119.891 227.627 119.584 228.093 119.371 228.68C119.104 229.293 118.971 229.88 118.971 230.44C119.024 231.16 119.078 231.72 119.131 232.12C119.184 232.52 119.224 232.773 119.251 232.88L118.211 233.6C118.211 232.827 118.131 231.667 117.971 230.12C117.811 228.493 117.678 227.507 117.571 227.16C117.544 227.107 117.531 227.027 117.531 226.92C117.531 226.52 117.784 226.2 118.291 225.96C118.718 225.747 119.291 225.573 120.011 225.44C120.731 225.307 121.624 225.227 122.691 225.2L124.051 225.12H124.851C126.398 225.12 127.691 225.333 128.731 225.76C130.998 226.64 132.131 228.253 132.131 230.6C132.131 233.32 130.398 235.333 126.931 236.64C126.478 236.8 126.251 236.933 126.251 237.04C126.251 237.173 126.638 237.28 127.411 237.36C129.704 237.6 131.371 238.427 132.411 239.84C133.078 240.773 133.411 242.12 133.411 243.88C133.411 244.787 133.344 245.613 133.211 246.36C133.104 247.107 132.904 247.747 132.611 248.28C131.384 250.787 128.918 252.2 125.211 252.52C124.998 252.547 124.771 252.56 124.531 252.56C124.318 252.56 124.091 252.56 123.851 252.56ZM145.528 252.48C142.755 252.48 140.608 251.12 139.088 248.4C137.781 246.053 137.128 243.107 137.128 239.56C137.128 235.267 137.955 232.04 139.608 229.88C140.408 229.027 141.501 227.813 142.888 226.24C143.608 225.387 144.981 224.96 147.008 224.96C149.621 224.96 151.701 226.4 153.248 229.28C154.608 231.84 155.288 234.907 155.288 238.48C155.288 242.373 154.501 245.347 152.928 247.4C152.608 247.747 152.195 248.2 151.688 248.76C151.181 249.32 150.581 250 149.888 250.8C149.061 251.92 147.608 252.48 145.528 252.48ZM147.368 250.44C150.221 250.44 151.955 247.987 152.568 243.08C152.621 242.547 152.661 242.013 152.688 241.48C152.715 240.947 152.728 240.413 152.728 239.88C152.728 236.893 152.275 234.36 151.368 232.28C150.328 229.933 148.848 228.4 146.928 227.68C146.235 227.413 145.581 227.28 144.968 227.28C142.115 227.28 140.408 229.76 139.848 234.72C139.795 235.227 139.755 235.733 139.728 236.24C139.701 236.747 139.688 237.253 139.688 237.76C139.688 239.2 139.795 240.547 140.008 241.8C140.221 243.053 140.541 244.2 140.968 245.24C141.928 247.613 143.341 249.173 145.208 249.92C145.928 250.267 146.648 250.44 147.368 250.44ZM182.689 243.92C181.596 243.627 179.956 243.48 177.769 243.48C176.276 243.48 174.449 243.6 172.289 243.84C172.262 243.84 172.249 243.813 172.249 243.76C172.249 243.493 172.382 243.08 172.649 242.52C172.942 241.907 173.182 241.627 173.369 241.68C173.876 241.813 174.516 241.92 175.289 242C176.089 242.08 177.022 242.12 178.089 242.12C178.516 242.12 178.982 242.107 179.489 242.08C180.022 242.027 180.596 241.987 181.209 241.96C181.982 241.907 182.582 241.867 183.009 241.84C183.436 241.787 183.689 241.76 183.769 241.76C183.796 241.76 183.809 241.787 183.809 241.84C183.809 242.053 183.676 242.467 183.409 243.08C183.089 243.667 182.849 243.947 182.689 243.92ZM200.01 252.12L200.29 251.36C200.397 251.387 200.504 251.4 200.61 251.4C200.717 251.4 200.837 251.4 200.97 251.4C201.797 251.4 202.61 251.253 203.41 250.96C204.344 250.56 204.917 250 205.13 249.28C205.237 248.8 205.317 247.787 205.37 246.24C205.45 244.667 205.504 242.547 205.53 239.88V233.44C205.53 232.507 205.504 231.733 205.45 231.12C205.424 230.507 205.344 230.04 205.21 229.72C205.104 229.32 204.837 229.027 204.41 228.84L204.25 228.8C203.877 228.8 203.157 229.307 202.09 230.32C201.904 230.533 201.677 230.773 201.41 231.04C201.144 231.307 200.864 231.587 200.57 231.88V230.2C200.944 229.933 201.437 229.573 202.05 229.12C202.69 228.64 203.464 228.053 204.37 227.36C205.09 226.773 205.757 226.24 206.37 225.76C206.984 225.28 207.53 224.867 208.01 224.52C208.17 224.387 208.344 224.32 208.53 224.32C208.744 224.32 208.85 224.467 208.85 224.76C208.85 224.92 208.837 225.053 208.81 225.16C208.624 226.307 208.464 227.867 208.33 229.84C208.224 231.787 208.17 234.147 208.17 236.92L208.21 239.92C208.21 244.747 208.33 247.867 208.57 249.28C208.704 250.053 209.33 250.627 210.45 251C211.17 251.267 212.01 251.4 212.97 251.4C213.157 251.4 213.277 251.387 213.33 251.36L212.89 252.12C212.09 251.88 210.117 251.72 206.97 251.64C206.464 251.64 204.144 251.8 200.01 252.12ZM221.454 252.12L221.734 251.36C221.841 251.387 221.947 251.4 222.054 251.4C222.161 251.4 222.281 251.4 222.414 251.4C223.241 251.4 224.054 251.253 224.854 250.96C225.787 250.56 226.361 250 226.574 249.28C226.761 248.533 226.867 246.8 226.894 244.08H225.574C225.147 244.08 224.747 244.08 224.374 244.08C224.027 244.08 223.707 244.093 223.414 244.12C222.187 244.147 219.507 244.267 215.374 244.48C215.267 244.507 215.134 244.52 214.974 244.52C214.574 244.52 214.374 244.453 214.374 244.32C214.374 244.213 214.547 244.027 214.894 243.76C215.107 243.573 215.507 243.053 216.094 242.2C216.707 241.32 217.507 240.107 218.494 238.56L223.254 231.04C223.414 230.8 223.641 230.413 223.934 229.88C224.254 229.347 224.627 228.667 225.054 227.84C225.507 226.96 225.907 226.453 226.254 226.32C226.414 226.267 226.667 226.16 227.014 226C227.361 225.813 227.787 225.587 228.294 225.32C229.147 224.867 229.694 224.64 229.934 224.64C230.147 224.64 230.254 224.76 230.254 225V225.16C230.067 226.28 229.907 227.787 229.774 229.68C229.667 231.573 229.614 233.867 229.614 236.56V236.92L229.654 239.92V242C231.094 241.84 232.067 241.613 232.574 241.32C233.134 240.947 233.694 240.32 234.254 239.44C234.841 238.587 235.174 237.907 235.254 237.4L235.934 237.6C235.321 238.88 234.894 240.24 234.654 241.68C234.361 243.413 233.467 244.28 231.974 244.28H231.854H231.974C231.947 244.253 231.734 244.24 231.334 244.24C230.961 244.213 230.414 244.187 229.694 244.16V244.68C229.747 245.827 229.787 246.787 229.814 247.56C229.867 248.307 229.934 248.88 230.014 249.28C230.147 250.053 230.774 250.627 231.894 251C232.614 251.267 233.454 251.4 234.414 251.4C234.601 251.4 234.721 251.387 234.774 251.36L234.294 252.12C233.547 251.88 231.587 251.72 228.414 251.64C227.907 251.64 225.587 251.8 221.454 252.12ZM224.374 242.2C224.827 242.2 225.254 242.2 225.654 242.2C226.081 242.2 226.507 242.187 226.934 242.16L226.974 233.44C226.974 230.453 226.747 228.84 226.294 228.6C226.001 228.84 225.187 229.987 223.854 232.04C222.521 234.093 220.681 237.067 218.334 240.96C218.201 241.147 218.134 241.333 218.134 241.52C218.134 241.787 218.414 241.947 218.974 242C219.881 242.08 220.774 242.133 221.654 242.16C222.561 242.187 223.467 242.2 224.374 242.2ZM241.678 252.4C241.304 252.4 240.851 252.16 240.318 251.68C239.811 251.227 239.558 250.88 239.558 250.64C239.558 250.453 239.984 250.013 240.838 249.32C241.451 248.84 241.838 248.6 241.998 248.6C242.104 248.6 242.251 248.68 242.438 248.84C242.571 248.947 242.704 249.053 242.838 249.16C242.998 249.24 243.144 249.307 243.278 249.36C243.651 249.547 244.118 249.64 244.678 249.64C244.838 249.64 244.918 249.733 244.918 249.92C244.918 250.027 244.878 250.12 244.798 250.2C244.718 250.28 244.571 250.4 244.358 250.56C244.171 250.72 243.904 250.947 243.558 251.24C242.624 252.013 241.998 252.4 241.678 252.4ZM258.809 252.48C256.036 252.48 253.889 251.12 252.369 248.4C251.063 246.053 250.409 243.107 250.409 239.56C250.409 235.267 251.236 232.04 252.889 229.88C253.689 229.027 254.783 227.813 256.169 226.24C256.889 225.387 258.263 224.96 260.289 224.96C262.903 224.96 264.983 226.4 266.529 229.28C267.889 231.84 268.569 234.907 268.569 238.48C268.569 242.373 267.783 245.347 266.209 247.4C265.889 247.747 265.476 248.2 264.969 248.76C264.463 249.32 263.863 250 263.169 250.8C262.343 251.92 260.889 252.48 258.809 252.48ZM260.649 250.44C263.503 250.44 265.236 247.987 265.849 243.08C265.903 242.547 265.943 242.013 265.969 241.48C265.996 240.947 266.009 240.413 266.009 239.88C266.009 236.893 265.556 234.36 264.649 232.28C263.609 229.933 262.129 228.4 260.209 227.68C259.516 227.413 258.863 227.28 258.249 227.28C255.396 227.28 253.689 229.76 253.129 234.72C253.076 235.227 253.036 235.733 253.009 236.24C252.983 236.747 252.969 237.253 252.969 237.76C252.969 239.2 253.076 240.547 253.289 241.8C253.503 243.053 253.823 244.2 254.249 245.24C255.209 247.613 256.623 249.173 258.489 249.92C259.209 250.267 259.929 250.44 260.649 250.44ZM280.567 252.48C277.794 252.48 275.647 251.12 274.127 248.4C272.821 246.053 272.167 243.107 272.167 239.56C272.167 235.267 272.994 232.04 274.647 229.88C275.447 229.027 276.541 227.813 277.927 226.24C278.647 225.387 280.021 224.96 282.047 224.96C284.661 224.96 286.741 226.4 288.287 229.28C289.647 231.84 290.327 234.907 290.327 238.48C290.327 242.373 289.541 245.347 287.967 247.4C287.647 247.747 287.234 248.2 286.727 248.76C286.221 249.32 285.621 250 284.927 250.8C284.101 251.92 282.647 252.48 280.567 252.48ZM282.407 250.44C285.261 250.44 286.994 247.987 287.607 243.08C287.661 242.547 287.701 242.013 287.727 241.48C287.754 240.947 287.767 240.413 287.767 239.88C287.767 236.893 287.314 234.36 286.407 232.28C285.367 229.933 283.887 228.4 281.967 227.68C281.274 227.413 280.621 227.28 280.007 227.28C277.154 227.28 275.447 229.76 274.887 234.72C274.834 235.227 274.794 235.733 274.767 236.24C274.741 236.747 274.727 237.253 274.727 237.76C274.727 239.2 274.834 240.547 275.047 241.8C275.261 243.053 275.581 244.2 276.007 245.24C276.967 247.613 278.381 249.173 280.247 249.92C280.967 250.267 281.687 250.44 282.407 250.44Z" fill="#FDFDFD"/>
</g>
<line x1="42.5" y1="51" x2="42.5" y2="233" stroke="black" stroke-dasharray="4 4"/>
<g filter="url(#filter2_d_245_53)">
<circle cx="52" cy="50" r="10" fill="#FDFDFD"/>
<circle cx="52" cy="50" r="9" stroke="#171717" stroke-width="2" stroke-dasharray="2 2"/>
</g>
<g filter="url(#filter3_d_245_53)">
<circle cx="52" cy="50" r="6" fill="#FDFDFD"/>
<circle cx="52" cy="50" r="5" stroke="#171717" stroke-width="2" stroke-dasharray="2 2"/>
</g>
<g filter="url(#filter4_d_245_53)">
<circle cx="52" cy="238" r="10" fill="#FDFDFD"/>
<circle cx="52" cy="238" r="9" stroke="#171717" stroke-width="2" stroke-dasharray="2 2"/>
</g>
<g filter="url(#filter5_d_245_53)">
<circle cx="52" cy="238" r="6" fill="#FDFDFD"/>
<circle cx="52" cy="238" r="5" stroke="#171717" stroke-width="2" stroke-dasharray="2 2"/>
</g>
<defs>
<filter id="filter0_d_245_53" x="53" y="16" width="258" height="132" filterUnits="userSpaceOnUse" color-interpolation-filters="sRGB">
<feFlood flood-opacity="0" result="BackgroundImageFix"/>
<feColorMatrix in="SourceAlpha" type="matrix" values="0 0 0 0 0 0 0 0 0 0 0 0 0 0 0 0 0 0 127 0" result="hardAlpha"/>
<feOffset dy="2"/>
<feGaussianBlur stdDeviation="1"/>
<feComposite in2="hardAlpha" operator="out"/>
<feColorMatrix type="matrix" values="0 0 0 0 0 0 0 0 0 0 0 0 0 0 0 0 0 0 0.25 0"/>
<feBlend mode="normal" in2="BackgroundImageFix" result="effect1_dropShadow_245_53"/>
<feBlend mode="normal" in="SourceGraphic" in2="effect1_dropShadow_245_53" result="shape"/>
</filter>
<filter id="filter1_d_245_53" x="53" y="204" width="258" height="132" filterUnits="userSpaceOnUse" color-interpolation-filters="sRGB">
<feFlood flood-opacity="0" result="BackgroundImageFix"/>
<feColorMatrix in="SourceAlpha" type="matrix" values="0 0 0 0 0 0 0 0 0 0 0 0 0 0 0 0 0 0 127 0" result="hardAlpha"/>
<feOffset dy="2"/>
<feGaussianBlur stdDeviation="1"/>
<feComposite in2="hardAlpha" operator="out"/>
<feColorMatrix type="matrix" values="0 0 0 0 0 0 0 0 0 0 0 0 0 0 0 0 0 0 0.25 0"/>
<feBlend mode="normal" in2="BackgroundImageFix" result="effect1_dropShadow_245_53"/>
<feBlend mode="normal" in="SourceGraphic" in2="effect1_dropShadow_245_53" result="shape"/>
</filter>
<filter id="filter2_d_245_53" x="0" y="0" width="104" height="104" filterUnits="userSpaceOnUse" color-interpolation-filters="sRGB">
<feFlood flood-opacity="0" result="BackgroundImageFix"/>
<feColorMatrix in="SourceAlpha" type="matrix" values="0 0 0 0 0 0 0 0 0 0 0 0 0 0 0 0 0 0 127 0" result="hardAlpha"/>
<feOffset dy="2"/>
<feGaussianBlur stdDeviation="21"/>
<feComposite in2="hardAlpha" operator="out"/>
<feColorMatrix type="matrix" values="0 0 0 0 0 0 0 0 0 0 0 0 0 0 0 0 0 0 0.25 0"/>
<feBlend mode="normal" in2="BackgroundImageFix" result="effect1_dropShadow_245_53"/>
<feBlend mode="normal" in="SourceGraphic" in2="effect1_dropShadow_245_53" result="shape"/>
</filter>
<filter id="filter3_d_245_53" x="4" y="4" width="96" height="96" filterUnits="userSpaceOnUse" color-interpolation-filters="sRGB">
<feFlood flood-opacity="0" result="BackgroundImageFix"/>
<feColorMatrix in="SourceAlpha" type="matrix" values="0 0 0 0 0 0 0 0 0 0 0 0 0 0 0 0 0 0 127 0" result="hardAlpha"/>
<feOffset dy="2"/>
<feGaussianBlur stdDeviation="21"/>
<feComposite in2="hardAlpha" operator="out"/>
<feColorMatrix type="matrix" values="0 0 0 0 0 0 0 0 0 0 0 0 0 0 0 0 0 0 0.25 0"/>
<feBlend mode="normal" in2="BackgroundImageFix" result="effect1_dropShadow_245_53"/>
<feBlend mode="normal" in="SourceGraphic" in2="effect1_dropShadow_245_53" result="shape"/>
</filter>
<filter id="filter4_d_245_53" x="0" y="188" width="104" height="104" filterUnits="userSpaceOnUse" color-interpolation-filters="sRGB">
<feFlood flood-opacity="0" result="BackgroundImageFix"/>
<feColorMatrix in="SourceAlpha" type="matrix" values="0 0 0 0 0 0 0 0 0 0 0 0 0 0 0 0 0 0 127 0" result="hardAlpha"/>
<feOffset dy="2"/>
<feGaussianBlur stdDeviation="21"/>
<feComposite in2="hardAlpha" operator="out"/>
<feColorMatrix type="matrix" values="0 0 0 0 0 0 0 0 0 0 0 0 0 0 0 0 0 0 0.25 0"/>
<feBlend mode="normal" in2="BackgroundImageFix" result="effect1_dropShadow_245_53"/>
<feBlend mode="normal" in="SourceGraphic" in2="effect1_dropShadow_245_53" result="shape"/>
</filter>
<filter id="filter5_d_245_53" x="4" y="192" width="96" height="96" filterUnits="userSpaceOnUse" color-interpolation-filters="sRGB">
<feFlood flood-opacity="0" result="BackgroundImageFix"/>
<feColorMatrix in="SourceAlpha" type="matrix" values="0 0 0 0 0 0 0 0 0 0 0 0 0 0 0 0 0 0 127 0" result="hardAlpha"/>
<feOffset dy="2"/>
<feGaussianBlur stdDeviation="21"/>
<feComposite in2="hardAlpha" operator="out"/>
<feColorMatrix type="matrix" values="0 0 0 0 0 0 0 0 0 0 0 0 0 0 0 0 0 0 0.25 0"/>
<feBlend mode="normal" in2="BackgroundImageFix" result="effect1_dropShadow_245_53"/>
<feBlend mode="normal" in="SourceGraphic" in2="effect1_dropShadow_245_53" result="shape"/>
</filter>
</defs>
</svg>
